<svg version="1.1" id="Layer_1" xmlns="http://www.w3.org/2000/svg" xmlns:xlink="http://www.w3.org/1999/xlink" x="0px" y="0px"
	 width="100%" viewBox="0 0 262 57" enable-background="new 0 0 262 57" xml:space="preserve">
<path fill="#F5F8F9" opacity="1.000000" stroke="none" 
	d="
M132.000000,1.000000 
	C133.388885,1.000000 134.777786,1.000000 136.584412,1.359066 
	C137.212601,2.670247 137.423019,3.622364 137.633453,4.574480 
	C137.948242,4.608276 138.263016,4.642073 138.577789,4.675869 
	C139.051865,3.450579 139.525925,2.225289 140.000000,0.999999 
	C161.020889,1.000000 182.041794,1.000000 203.576447,1.379393 
	C205.047913,5.047755 205.621094,8.525246 207.106598,11.555473 
	C208.007629,13.393477 210.319901,14.539651 212.135544,16.277424 
	C213.142746,17.040119 214.012558,17.522022 214.959229,18.336506 
	C214.978226,19.117500 214.920380,19.565914 214.633240,20.238907 
	C214.552750,21.636980 214.701569,22.810474 214.931396,24.396601 
	C214.948135,26.205137 214.883881,27.601042 214.509476,29.056347 
	C213.233414,30.073648 212.267517,31.031551 211.257690,31.650185 
	C211.144379,30.862453 211.075012,30.413992 210.935242,29.777973 
	C210.733536,29.348490 210.547470,29.160852 210.258682,28.635817 
	C209.255875,25.499483 208.301025,22.754839 207.669998,20.000202 
	C208.538330,19.587114 209.082855,19.184021 209.627365,18.780930 
	C208.513153,18.184366 207.398941,17.587801 206.224396,16.585470 
	C205.543915,15.478639 204.923737,14.777573 203.305328,12.948042 
	C203.305328,23.295273 203.305328,32.135563 202.971436,40.984062 
	C201.742065,40.994770 200.846573,40.997272 199.823212,40.546074 
	C199.069550,31.213026 200.527374,22.180775 198.954285,13.370944 
	C198.490692,13.399875 198.027100,13.428804 197.563507,13.457735 
	C197.563507,21.531321 197.563507,29.604904 197.308090,37.691147 
	C196.731308,37.773148 196.409958,37.842484 196.029083,37.603638 
	C195.640915,36.532257 195.312225,35.769054 195.001297,34.617222 
	C192.559586,27.090836 190.100098,19.953079 187.640610,12.815323 
	C187.196884,12.946933 186.753159,13.078543 186.309433,13.210153 
	C186.095718,14.153040 185.881989,15.095927 185.461548,16.291088 
	C185.358475,18.006594 185.462128,19.469824 185.643951,21.385614 
	C185.829361,24.892313 185.936584,27.946455 185.957428,31.336311 
	C185.809021,32.128666 185.747025,32.585304 185.481812,33.274258 
	C185.420547,34.659550 185.562469,35.812527 185.778351,37.391167 
	C185.789276,39.539085 185.726212,41.261349 185.453064,43.298561 
	C184.495239,45.745491 183.747528,47.877476 182.999817,49.585625 
	C182.590042,47.249252 182.180283,45.336712 181.775223,43.019211 
	C182.946274,34.939762 183.837662,27.384302 180.698090,19.786505 
	C179.385483,16.609974 178.532074,13.229780 174.756561,13.076832 
	C170.911469,12.921064 169.178635,16.096098 168.314209,19.438883 
	C165.514755,30.264450 165.320099,40.880409 170.937622,51.044815 
	C170.083252,52.124065 169.542908,53.064991 168.668488,54.004784 
	C167.888977,54.004387 167.443558,54.005131 166.801422,53.751373 
	C164.739304,53.325069 162.873901,53.153255 160.988235,52.670944 
	C160.945068,52.154270 160.922150,51.948101 161.061035,51.445610 
	C164.075073,48.622284 166.618881,46.012604 163.759598,41.848789 
	C160.048843,46.674084 158.194092,47.079426 155.939560,43.630890 
	C152.050156,37.681629 152.588043,24.555197 157.361847,18.590641 
	C159.794861,19.338215 161.827744,20.180471 164.896332,21.451826 
	C164.481430,19.200314 164.735504,16.655989 163.584778,15.426970 
	C162.411057,14.173387 159.856705,14.212490 157.565521,13.776940 
	C155.754074,15.247972 154.283951,16.627695 152.629608,18.140409 
	C152.219971,18.494183 152.086121,18.760925 152.030304,19.049679 
	C152.016785,19.025732 152.065735,19.051224 151.553284,18.982805 
	C150.699677,18.865290 150.358536,18.816191 149.974670,18.556583 
	C149.884720,17.782402 149.837479,17.218731 149.848770,16.237846 
	C149.316971,14.545910 148.726639,13.271185 147.915237,11.786683 
	C147.120911,10.744136 146.547653,9.911364 145.833908,8.838645 
	C145.119614,8.780385 144.545792,8.962073 143.921783,9.237500 
	C143.871597,9.331239 143.658936,9.333689 143.205780,9.249907 
	C135.052429,8.715908 133.336914,7.413056 132.000000,1.000000 
z"/>
<path fill="#E7EBEB" opacity="1.000000" stroke="none" 
	d="
M166.998123,54.005867 
	C167.443558,54.005131 167.888977,54.004387 168.880157,54.260242 
	C170.948563,53.721298 172.471222,52.925758 174.321350,52.049335 
	C175.096359,51.968941 175.543900,51.969433 176.185944,52.239616 
	C178.369629,53.898220 180.101990,54.665245 180.344971,51.006523 
	C181.453995,50.671093 182.226898,50.340279 182.999817,50.009460 
	C183.747528,47.877476 184.495239,45.745491 185.547729,43.732704 
	C185.926651,46.490719 186.000793,49.129539 186.063049,52.145279 
	C188.187836,57.036156 188.771637,56.951359 192.721863,51.667160 
	C194.435684,52.539536 196.136658,53.405373 198.404922,54.559967 
	C198.185928,52.792194 198.086945,51.993141 198.278931,51.115921 
	C198.968399,50.995808 199.366913,50.953865 200.131927,51.064354 
	C201.778290,51.443768 203.058121,51.670746 204.587738,51.724388 
	C205.275452,50.703560 205.713394,49.856068 206.367264,49.006908 
	C206.583191,49.005245 207.014954,48.997334 207.402954,48.999611 
	C209.926300,49.645519 212.061676,50.289158 214.617188,51.010468 
	C215.857941,50.390388 216.678558,49.692638 217.813202,49.001369 
	C219.132767,49.656231 220.138321,50.304607 221.403412,51.019070 
	C221.765686,51.231209 221.868408,51.377266 221.881500,51.839848 
	C220.194580,54.104248 218.597290,56.052124 217.000000,58.000000 
	C199.979111,58.000000 182.958206,58.000000 165.474075,57.657211 
	C165.673264,56.211571 166.335693,55.108719 166.998123,54.005867 
z"/>
<path fill="#D5DDE1" opacity="1.000000" stroke="none" 
	d="
M1.000000,48.000000 
	C1.000000,40.979053 1.000000,33.958103 1.355297,26.426178 
	C2.773397,24.579744 3.882722,23.278326 4.889715,21.902035 
	C7.288272,18.623842 9.638478,15.310272 12.006580,12.422078 
	C11.345267,16.246746 10.685592,19.660328 10.009239,23.490433 
	C9.665248,26.808233 8.693163,29.815676 9.149615,32.587906 
	C10.006018,37.789192 11.688728,42.854424 12.673155,47.947372 
	C10.766489,47.640129 9.214452,47.361755 7.662414,47.083382 
	C7.789369,48.753727 7.727526,50.466530 8.091152,52.083656 
	C8.543879,54.097042 9.347759,56.031475 10.000000,58.000000 
	C8.933331,58.000000 7.866662,58.000000 6.354056,57.619205 
	C4.127512,54.235744 5.972474,49.306911 1.000000,48.000000 
z"/>
<path fill="#EFF2F2" opacity="1.000000" stroke="none" 
	d="
M221.143860,50.952988 
	C220.138321,50.304607 219.132767,49.656231 217.718185,48.541695 
	C217.291382,37.778343 217.346313,27.479900 217.168915,17.185461 
	C217.145309,15.814841 215.943054,14.464532 214.906708,13.075683 
	C214.019073,13.029185 213.511368,13.011822 213.012054,12.590292 
	C213.013641,8.457417 213.006821,4.728709 213.000000,1.000000 
	C216.692902,1.000000 220.385818,1.000000 224.541336,1.444599 
	C224.730835,5.903913 224.720993,9.847168 227.680923,12.990959 
	C226.939560,13.129354 226.509766,13.176583 225.680908,13.119166 
	C223.962311,13.713666 222.642746,14.412814 221.286896,15.572030 
	C221.215012,27.672396 221.179443,39.312691 221.143860,50.952988 
z"/>
<path fill="#CED0D0" opacity="1.000000" stroke="none" 
	d="
M76.000000,1.000000 
	C78.042320,1.000000 80.084633,1.000000 82.563156,1.392629 
	C82.670174,4.522818 82.340996,7.260377 82.007133,10.229020 
	C82.002449,10.460103 81.990814,10.922216 81.980652,11.194071 
	C81.981392,11.646575 81.992287,11.827224 81.923416,12.466255 
	C81.904640,17.282827 81.965630,21.641018 81.934769,26.329199 
	C81.905220,27.107357 81.967529,27.555529 81.956291,28.251987 
	C81.934296,28.665039 81.985855,28.829798 81.948616,29.445297 
	C81.928612,33.265240 81.997398,36.634438 81.978630,40.424591 
	C81.919189,42.563923 81.947311,44.282307 81.695160,46.222366 
	C81.277809,47.627201 81.140732,48.810352 80.993118,50.239220 
	C80.982567,50.484928 80.957336,50.976151 80.689392,50.717140 
	C79.658630,47.297722 80.297638,43.420235 76.061897,41.546631 
	C76.014046,27.718523 76.007027,14.359262 76.000000,1.000000 
z"/>
<path fill="#DCE4E9" opacity="1.000000" stroke="none" 
	d="
M67.000000,58.000000 
	C65.285622,58.000000 63.571247,58.000000 61.489273,57.650372 
	C63.082325,52.867939 65.042969,48.435131 67.156227,43.656265 
	C67.750641,42.088020 68.477776,40.890060 68.583992,39.639374 
	C69.004341,34.689960 72.133957,29.686577 68.510239,24.671541 
	C68.577980,24.564846 68.801292,24.683275 68.794342,24.369537 
	C68.566231,23.712776 68.345070,23.369753 67.994415,22.726681 
	C67.813873,21.996119 67.762825,21.565607 67.987572,20.959696 
	C67.532944,19.521084 66.802528,18.257870 65.956345,16.901617 
	C65.840584,16.808577 65.870491,16.513048 65.896805,16.114193 
	C65.281952,13.808749 64.640770,11.902160 64.170746,9.754908 
	C64.893982,9.342538 65.446075,9.170833 66.366272,9.041857 
	C68.490364,11.723516 70.246368,14.362444 72.036568,17.345203 
	C73.030487,18.788204 73.990211,19.887375 74.966644,21.455383 
	C74.972275,27.951830 74.961189,33.979443 74.578186,40.093201 
	C72.086800,45.022621 69.939163,49.853912 67.870567,54.718800 
	C67.432274,55.749561 67.282639,56.903057 67.000000,58.000000 
z"/>
<path fill="#E1E6E5" opacity="1.000000" stroke="none" 
	d="
M101.000000,1.000000 
	C102.714378,1.000000 104.428749,1.000000 106.615623,1.375145 
	C107.057632,4.498509 107.027145,7.246728 106.757919,10.165110 
	C106.347191,10.887236 106.175194,11.439198 106.026215,12.254916 
	C106.118263,12.681034 106.187294,12.843397 106.192352,13.468200 
	C106.151993,18.950520 106.175598,23.970400 106.106705,29.250023 
	C106.075218,29.683153 106.136253,29.856543 106.141891,30.493446 
	C106.052788,37.303917 106.019081,43.650871 105.673920,49.973526 
	C104.599312,49.628723 103.836159,49.308216 102.888130,48.968437 
	C102.703247,48.949169 102.333618,48.969387 102.258881,48.509964 
	C102.193665,43.029667 102.203186,38.008793 102.459976,32.660805 
	C102.440681,27.543314 102.174126,22.752937 101.954636,17.532593 
	C101.925766,15.503633 101.849831,13.904640 101.684029,10.413216 
	C98.767075,12.519833 96.920731,13.853262 95.025757,14.829102 
	C93.491516,10.562444 95.744118,8.164391 98.756805,6.755777 
	C101.700668,5.379343 102.045265,3.617533 101.000000,1.000000 
z"/>
<path fill="#D6D9DA" opacity="1.000000" stroke="none" 
	d="
M217.468658,58.000000 
	C218.597290,56.052124 220.194580,54.104248 222.250793,51.754135 
	C224.448120,51.455334 226.186569,51.558773 227.945084,51.991177 
	C227.980576,52.539318 227.995972,52.758495 227.674606,52.986732 
	C226.563049,53.103161 225.788254,53.210537 225.013443,53.317909 
	C225.108353,53.590389 225.203247,53.862865 225.298157,54.135342 
	C226.208038,53.753475 227.117905,53.371605 228.393311,52.986694 
	C229.856491,52.373524 230.954147,51.763393 232.102325,50.841980 
	C232.254852,50.346870 232.356873,50.163040 232.865356,49.979797 
	C235.185028,49.985916 237.098251,49.991455 239.328171,50.179001 
	C243.842926,54.573368 245.602463,50.173409 248.356262,47.990356 
	C250.973022,46.654636 253.225311,45.326202 255.576508,44.418282 
	C255.790207,46.558762 255.904999,48.278728 255.917786,50.248722 
	C255.773529,50.673748 255.731262,50.848743 255.307877,51.022732 
	C250.762360,52.130894 245.772842,52.066288 245.000000,58.000000 
	C235.979111,58.000000 226.958206,58.000000 217.468658,58.000000 
z"/>
<path fill="#E1E4E5" opacity="1.000000" stroke="none" 
	d="
M227.992477,12.899796 
	C224.720993,9.847168 224.730835,5.903913 225.001984,1.444599 
	C228.361282,1.000000 231.722580,1.000000 235.541931,1.431321 
	C235.784149,3.983662 236.127136,6.380798 235.242462,8.171360 
	C233.029816,12.649660 234.987976,13.858476 238.913757,14.330820 
	C237.873093,16.101149 236.933853,17.549427 235.595184,18.997864 
	C234.130524,18.998022 233.065323,18.998020 231.960602,18.578001 
	C231.905151,17.877192 231.889206,17.596399 231.976532,16.943079 
	C233.075333,12.721397 230.270462,13.103942 227.992477,12.899796 
z"/>
<path fill="#D1D7DC" opacity="1.000000" stroke="none" 
	d="
M12.008216,12.010992 
	C9.638478,15.310272 7.288272,18.623842 4.889715,21.902035 
	C3.882722,23.278326 2.773397,24.579744 1.355297,25.957600 
	C1.000000,22.969406 1.000000,19.938814 1.339471,16.400932 
	C5.452628,10.929095 9.226314,5.964547 13.000000,1.000000 
	C14.714358,1.000000 16.428717,1.000000 18.529175,1.371189 
	C17.277683,4.825850 15.640089,7.909323 13.832974,11.235924 
	C13.111708,11.656365 12.559961,11.833679 12.008216,12.010992 
z"/>
<path fill="#EBEDEC" opacity="1.000000" stroke="none" 
	d="
M106.996658,9.994947 
	C107.027145,7.246728 107.057632,4.498509 107.044060,1.375145 
	C112.022095,1.000000 117.044182,1.000000 122.532387,1.449939 
	C122.994835,4.599534 122.991173,7.299190 122.748352,10.163788 
	C122.297623,10.863435 122.086052,11.398141 121.525711,11.911366 
	C116.794510,8.681505 111.871399,9.519241 106.996658,9.994947 
z"/>
<path fill="#F3F7F4" opacity="1.000000" stroke="none" 
	d="
M122.987503,9.998846 
	C122.991173,7.299190 122.994835,4.599534 122.999252,1.449939 
	C125.700012,1.000000 128.400024,1.000000 131.550018,1.000000 
	C133.336914,7.413056 135.052429,8.715908 143.062958,9.554802 
	C142.591522,11.294208 141.809784,12.644936 140.800858,14.121291 
	C140.403976,14.541845 140.234253,14.836771 140.057571,15.101471 
	C140.050598,15.071246 140.104675,15.101936 139.645752,15.073029 
	C137.655533,15.085276 136.124237,15.126431 134.405960,15.089643 
	C133.993347,14.828317 133.879608,14.591255 133.902649,13.903455 
	C132.157944,9.714876 127.999489,8.381612 122.987503,9.998846 
z"/>
<path fill="#D7DAD9" opacity="1.000000" stroke="none" 
	d="
M242.000000,1.000000 
	C245.362106,1.000000 248.724197,1.000000 252.548660,1.374589 
	C254.338394,5.118962 255.665771,8.488745 256.644623,12.049927 
	C254.246994,12.580523 252.197876,12.919720 249.942535,12.950239 
	C247.162933,11.756524 244.589584,10.871487 242.011688,9.537350 
	C242.004761,6.392168 242.002380,3.696084 242.000000,1.000000 
z"/>
<path fill="#B6C6C9" opacity="1.000000" stroke="none" 
	d="
M13.027783,47.976242 
	C11.688728,42.854424 10.006018,37.789192 9.149615,32.587906 
	C8.693163,29.815676 9.665248,26.808233 10.241415,23.464766 
	C10.490268,23.022575 10.956532,22.987778 10.959914,23.449844 
	C10.335189,33.067211 11.662750,41.578281 19.075422,48.440994 
	C24.072237,51.134686 28.934525,53.516495 34.136322,56.036270 
	C35.983894,56.782825 37.491947,57.391411 39.000000,58.000000 
	C33.977909,58.000000 28.955816,58.000000 23.445749,57.659122 
	C21.327925,55.865395 19.698072,54.412544 18.012478,52.621059 
	C16.311880,50.846104 14.667027,49.409782 13.014955,47.978951 
	C13.007734,47.984447 13.027783,47.976242 13.027783,47.976242 
z"/>
<path fill="#ECEEED" opacity="1.000000" stroke="none" 
	d="
M141.000000,58.000000 
	C139.611008,58.000000 138.222000,58.000000 136.347610,57.644489 
	C133.187210,55.725250 130.512222,54.161522 127.986992,52.355095 
	C128.700882,52.055096 129.264999,51.997799 130.073013,51.856850 
	C130.542648,51.521751 130.768387,51.270309 131.127289,50.904144 
	C131.260437,50.789421 131.603668,50.865433 131.992065,50.896599 
	C135.824234,50.404369 135.981064,50.186924 134.706314,47.517292 
	C135.427277,46.106873 136.058899,45.005844 137.046448,43.908600 
	C138.885574,43.269588 140.368744,42.626797 141.874893,42.432919 
	C141.953781,45.548058 142.009705,48.214279 141.902924,51.246643 
	C141.493469,53.741856 141.246735,55.870930 141.000000,58.000000 
z"/>
<path fill="#F5F6F4" opacity="1.000000" stroke="none" 
	d="
M212.550018,1.000000 
	C213.006821,4.728709 213.013641,8.457417 212.753189,12.800128 
	C212.323334,14.274965 212.160751,15.135801 211.998169,15.996635 
	C210.319901,14.539651 208.007629,13.393477 207.106598,11.555473 
	C205.621094,8.525246 205.047913,5.047755 204.045105,1.379393 
	C206.700012,1.000000 209.400024,1.000000 212.550018,1.000000 
z"/>
<path fill="#E0E7EE" opacity="1.000000" stroke="none" 
	d="
M67.003616,44.002327 
	C65.042969,48.435131 63.082325,52.867939 61.060837,57.650372 
	C54.645603,58.000000 48.291203,58.000000 41.648560,57.726551 
	C42.900478,56.699104 44.440651,55.945110 46.386726,55.257706 
	C49.477623,54.413422 52.162609,53.502541 55.012032,52.880592 
	C56.036465,53.043488 57.169369,53.223866 57.711533,52.740982 
	C60.885471,49.914070 63.921234,46.932026 67.003616,44.002327 
z"/>
<path fill="#CDD3D5" opacity="1.000000" stroke="none" 
	d="
M263.000000,17.999996 
	C263.000000,21.362101 263.000000,24.724203 262.627686,28.621792 
	C261.503601,34.401569 260.831421,39.659214 259.955048,44.882603 
	C259.664124,46.616680 258.848663,48.262753 258.167694,49.902924 
	C258.062378,49.856796 257.847015,49.776306 257.921753,49.392071 
	C257.924835,39.349503 257.853149,29.691166 257.938324,19.738033 
	C259.730133,18.962156 261.365051,18.481073 263.000000,17.999996 
z"/>
<path fill="#C7CFD2" opacity="1.000000" stroke="none" 
	d="
M12.520824,1.000000 
	C9.226314,5.964547 5.452628,10.929095 1.339471,15.946821 
	C1.000000,11.086481 1.000000,6.172963 1.000000,1.000000 
	C4.676602,1.000000 8.359125,1.000000 12.520824,1.000000 
z"/>
<path fill="#DCE2E6" opacity="1.000000" stroke="none" 
	d="
M18.068222,52.959694 
	C19.698072,54.412544 21.327925,55.865395 22.978888,57.659122 
	C18.975456,58.000000 14.950912,58.000000 10.463182,58.000000 
	C9.347759,56.031475 8.543879,54.097042 8.091152,52.083656 
	C7.727526,50.466530 7.789369,48.753727 7.662414,47.083382 
	C9.214452,47.361755 10.766489,47.640129 12.673155,47.947372 
	C13.027783,47.976242 13.007734,47.984447 13.042068,48.326477 
	C14.740343,50.098904 16.404282,51.529301 18.068222,52.959694 
z"/>
<path fill="#D6DBDF" opacity="1.000000" stroke="none" 
	d="
M72.002365,17.001373 
	C70.246368,14.362444 68.490364,11.723516 66.304794,8.685941 
	C63.919224,7.524431 61.963219,6.761569 59.758350,5.995433 
	C59.509487,5.992161 59.011723,5.989594 59.000767,5.620237 
	C57.992912,4.501603 56.996014,3.752325 55.999557,3.001549 
	C56.000000,3.000050 55.999966,2.997380 56.102684,2.736531 
	C56.470272,1.983788 56.735134,1.491894 57.000000,0.999999 
	C59.041668,1.000000 61.083332,1.000000 63.616627,1.340821 
	C67.717194,4.115913 71.326126,6.550186 74.958527,9.428856 
	C74.966476,12.246755 74.950966,14.620255 74.569473,16.996174 
	C73.469780,16.999517 72.736069,17.000444 72.002365,17.001373 
z"/>
<path fill="#DDDEDC" opacity="1.000000" stroke="none" 
	d="
M103.073013,48.987709 
	C103.836159,49.308216 104.599312,49.628723 105.791779,50.128803 
	C106.221107,50.308380 106.219673,50.698235 106.168350,51.067963 
	C107.397942,51.916164 108.678856,52.394634 110.217850,53.173401 
	C112.046120,53.662178 113.853355,53.430225 115.125450,54.147442 
	C116.654839,55.009724 117.728836,56.679714 119.000000,58.000000 
	C113.645073,58.000000 108.290138,58.000000 102.462708,57.644817 
	C100.999001,55.859478 100.007797,54.429325 99.313614,52.977036 
	C100.067696,52.623451 100.524757,52.292011 100.978714,51.983711 
	C100.975616,52.006855 100.949623,51.967838 101.301025,51.930683 
	C102.125961,50.924923 102.599487,49.956318 103.073013,48.987709 
z"/>
<path fill="#D0D4D4" opacity="1.000000" stroke="none" 
	d="
M256.993134,11.858528 
	C255.665771,8.488745 254.338394,5.118962 253.005508,1.374589 
	C256.257568,1.000000 259.515167,1.000000 263.000000,1.000000 
	C263.000000,4.342758 263.000000,7.688423 262.570251,11.538708 
	C260.424713,11.981728 258.708923,11.920128 256.993134,11.858528 
z"/>
<path fill="#1B2832" opacity="1.000000" stroke="none" 
	d="
M256.644623,12.049927 
	C258.708923,11.920128 260.424713,11.981728 262.570251,12.021664 
	C263.000000,13.714358 263.000000,15.428716 263.000000,17.571533 
	C261.365051,18.481073 259.730133,18.962156 257.601929,19.737400 
	C256.660400,20.039610 256.212128,20.047655 255.542877,19.762335 
	C253.686905,19.256521 252.051926,19.044073 250.148758,18.796776 
	C250.148758,17.155239 250.148758,15.207079 250.148758,13.258918 
	C252.197876,12.919720 254.246994,12.580523 256.644623,12.049927 
z"/>
<path fill="#E0E2E0" opacity="1.000000" stroke="none" 
	d="
M100.562500,1.000000 
	C102.045265,3.617533 101.700668,5.379343 98.756805,6.755777 
	C95.744118,8.164391 93.491516,10.562444 95.011505,15.042259 
	C95.045860,15.613008 94.873291,16.003859 94.540726,16.041451 
	C90.937126,17.605024 90.425537,15.359927 90.032898,12.654179 
	C90.377396,11.206652 90.687782,10.103841 90.999084,9.000496 
	C91.000000,8.999962 91.000916,8.997804 91.317474,8.827357 
	C92.422691,6.104607 93.211342,3.552302 94.000000,0.999999 
	C96.041664,1.000000 98.083336,1.000000 100.562500,1.000000 
z"/>
<path fill="#E5E8E6" opacity="1.000000" stroke="none" 
	d="
M119.467606,58.000000 
	C117.728836,56.679714 116.654839,55.009724 115.125450,54.147442 
	C113.853355,53.430225 112.046120,53.662178 110.652527,53.160355 
	C113.234360,52.253265 115.639572,51.659519 118.115036,51.015038 
	C118.185287,50.964306 118.299088,51.095024 118.740585,51.056477 
	C120.067589,50.936707 120.953079,50.855484 122.001907,51.075142 
	C124.055901,51.783283 125.946564,52.190540 127.837219,52.597794 
	C130.512222,54.161522 133.187210,55.725250 135.931107,57.644489 
	C130.645065,58.000000 125.290138,58.000000 119.467606,58.000000 
z"/>
<path fill="#CBD4D7" opacity="1.000000" stroke="none" 
	d="
M99.016602,52.999172 
	C100.007797,54.429325 100.999001,55.859478 101.995102,57.644817 
	C96.311958,58.000000 90.623917,58.000000 84.434959,57.655357 
	C83.622032,56.208714 83.310013,55.106712 83.349937,53.996407 
	C84.464951,53.330185 85.228020,52.672264 86.236595,52.005001 
	C86.482109,51.995659 86.973190,51.978313 87.141144,52.211826 
	C88.192665,52.296783 89.076241,52.148224 90.266022,51.999134 
	C90.775703,51.982182 90.979179,51.965759 91.508354,52.030514 
	C94.067535,53.708084 96.120422,56.766090 99.016602,52.999172 
z"/>
<path fill="#C8C9C9" opacity="1.000000" stroke="none" 
	d="
M82.997993,54.004707 
	C83.310013,55.106712 83.622032,56.208714 83.967026,57.655357 
	C81.629440,58.000000 79.258888,58.000000 76.441391,57.533157 
	C76.030540,52.049374 76.066628,47.032425 76.102722,42.015480 
	C80.297638,43.420235 79.658630,47.297722 80.824203,50.952698 
	C81.516487,51.656105 81.806000,51.864941 82.089455,52.360435 
	C82.388268,53.099632 82.693130,53.552170 82.997993,54.004707 
z"/>
<path fill="#E7EBEB" opacity="1.000000" stroke="none" 
	d="
M161.000000,58.000000 
	C156.310745,58.000000 151.621490,58.000000 146.501450,57.654472 
	C145.385300,55.273808 144.699936,53.238678 144.319809,51.109314 
	C145.403809,50.342392 146.182587,49.669704 147.236816,49.218468 
	C150.086990,55.257248 155.163834,54.286201 160.124573,54.347923 
	C160.515579,55.774673 160.757797,56.887337 161.000000,58.000000 
z"/>
<path fill="#DAE0E3" opacity="1.000000" stroke="none" 
	d="
M67.444168,58.000000 
	C67.282639,56.903057 67.432274,55.749561 67.870567,54.718800 
	C69.939163,49.853912 72.086800,45.022621 74.594391,40.560192 
	C74.988358,46.627354 74.994179,52.313679 75.000000,58.000000 
	C72.629440,58.000000 70.258888,58.000000 67.444168,58.000000 
z"/>
<path fill="#E2E3E1" opacity="1.000000" stroke="none" 
	d="
M241.571533,1.000000 
	C242.002380,3.696084 242.004761,6.392168 241.788574,9.803370 
	C240.717789,11.687277 239.865570,12.856066 239.005890,14.017699 
	C238.998413,14.010543 239.015198,14.008768 239.015198,14.008768 
	C234.987976,13.858476 233.029816,12.649660 235.242462,8.171360 
	C236.127136,6.380798 235.784149,3.983662 236.000000,1.431321 
	C237.714355,1.000000 239.428711,1.000000 241.571533,1.000000 
z"/>
<path fill="#CED2D3" opacity="1.000000" stroke="none" 
	d="
M258.273010,49.949059 
	C258.848663,48.262753 259.664124,46.616680 259.955048,44.882603 
	C260.831421,39.659214 261.503601,34.401569 262.627686,29.078640 
	C263.000000,36.687576 263.000000,44.375153 262.583557,52.542831 
	C260.778900,53.016247 259.390686,53.009556 258.001221,53.001434 
	C258.000000,53.000000 257.997559,52.997227 258.009644,52.658081 
	C258.008148,51.867619 257.994568,51.416306 258.011963,50.698917 
	C258.119568,50.271584 258.196289,50.110321 258.273010,49.949059 
z"/>
<path fill="#D5D8D8" opacity="1.000000" stroke="none" 
	d="
M82.011818,9.997936 
	C82.340996,7.260377 82.670174,4.522818 82.999680,1.392629 
	C85.041664,1.000000 87.083336,1.000000 89.571541,1.402642 
	C90.345695,4.202791 90.673309,6.600297 91.000916,8.997804 
	C91.000916,8.997804 91.000000,8.999962 90.569077,8.999940 
	C87.429382,9.332591 84.720596,9.665264 82.011818,9.997936 
z"/>
<path fill="#9EBABD" opacity="1.000000" stroke="none" 
	d="
M45.980820,55.191113 
	C44.440651,55.945110 42.900478,56.699104 41.180153,57.726551 
	C40.555553,58.000000 40.111111,58.000000 39.333332,58.000000 
	C37.491947,57.391411 35.983894,56.782825 34.058754,55.731209 
	C32.032181,53.546501 30.422688,51.804832 28.840424,49.671707 
	C28.840790,47.985237 28.813923,46.690220 29.049059,45.214546 
	C29.829596,44.665531 30.348131,44.297173 30.942770,44.212517 
	C31.078522,44.682671 31.138172,44.869122 31.252312,45.355049 
	C31.707935,47.131485 31.828617,48.767517 32.560047,50.057152 
	C35.331623,54.943897 38.611637,55.358467 46.101761,52.239952 
	C46.478256,52.656521 46.756962,52.840130 46.845661,53.272438 
	C46.430706,54.077801 46.205765,54.634457 45.980820,55.191113 
z"/>
<path fill="#CED2D3" opacity="1.000000" stroke="none" 
	d="
M245.460632,58.000000 
	C245.772842,52.066288 250.762360,52.130894 255.406189,51.008907 
	C255.885620,50.996086 255.902390,51.193581 255.946732,51.503128 
	C256.659912,52.207527 257.328735,52.602375 257.997559,52.997223 
	C257.997559,52.997227 258.000000,53.000000 258.009583,53.370590 
	C257.679443,55.160789 257.339722,56.580395 257.000000,58.000000 
	C253.307098,58.000000 249.614182,58.000000 245.460632,58.000000 
z"/>
<path fill="#CCDCD7" opacity="1.000000" stroke="none" 
	d="
M14.002497,10.992796 
	C15.640089,7.909323 17.277683,4.825850 18.957638,1.371189 
	C22.692909,1.000000 26.385818,1.000000 30.540203,1.297228 
	C30.999491,1.990754 30.997305,2.387051 30.613544,2.836388 
	C25.888247,5.278850 21.544523,7.668273 16.878536,10.152590 
	C15.705015,10.495921 14.853756,10.744359 14.002497,10.992796 
z"/>
<path fill="#FDFFFF" opacity="1.000000" stroke="none" 
	d="
M75.250000,58.000000 
	C74.994179,52.313679 74.988358,46.627354 74.966324,40.474045 
	C74.961189,33.979443 74.972275,27.951830 74.982925,21.056746 
	C74.966820,19.124100 74.951134,18.058928 74.935455,16.993755 
	C74.950966,14.620255 74.966476,12.246755 74.981529,8.986864 
	C74.987381,5.733649 74.993690,3.366824 75.000000,1.000000 
	C75.000000,1.000000 75.500000,1.000000 75.750000,1.000000 
	C76.007027,14.359262 76.014046,27.718523 76.061897,41.546631 
	C76.066628,47.032425 76.030540,52.049374 75.997223,57.533157 
	C76.000000,58.000000 75.500000,58.000000 75.250000,58.000000 
z"/>
<path fill="#CFD6D9" opacity="1.000000" stroke="none" 
	d="
M74.541931,1.000000 
	C74.993690,3.366824 74.987381,5.733649 74.958069,8.542465 
	C71.326126,6.550186 67.717194,4.115913 64.054123,1.340821 
	C67.361290,1.000000 70.722572,1.000000 74.541931,1.000000 
z"/>
<path fill="#C6F1B3" opacity="1.000000" stroke="none" 
	d="
M30.995121,2.783349 
	C30.997305,2.387051 30.999491,1.990754 31.000839,1.297228 
	C31.444445,1.000000 31.888891,1.000000 32.702660,1.295960 
	C33.481163,1.903555 33.890347,2.215191 34.299530,2.526826 
	C34.533020,2.017884 34.766510,1.508942 35.000000,1.000000 
	C38.030594,1.000000 41.061188,1.000000 44.534096,1.319446 
	C45.636658,2.456424 46.296909,3.273956 46.963127,4.462519 
	C46.977028,5.578196 46.984959,6.322840 46.674553,6.896358 
	C42.376274,3.354520 38.211311,2.833651 33.567364,6.018407 
	C32.901222,6.449166 32.480461,6.772356 32.039558,6.722447 
	C32.015007,5.602270 32.010593,4.855191 31.966944,3.806733 
	C31.616848,3.264686 31.305984,3.024018 30.995121,2.783349 
z"/>
<path fill="#D1D9DC" opacity="1.000000" stroke="none" 
	d="
M1.000000,48.486565 
	C5.972474,49.306911 4.127512,54.235744 5.954060,57.619205 
	C4.387716,58.000000 2.775432,58.000000 1.000000,58.000000 
	C1.000000,54.992054 1.000000,51.982590 1.000000,48.486565 
z"/>
<path fill="#E5E8E6" opacity="1.000000" stroke="none" 
	d="
M144.014587,51.203545 
	C144.699936,53.238678 145.385300,55.273808 146.035339,57.654472 
	C144.611115,58.000000 143.222214,58.000000 141.416656,58.000000 
	C141.246735,55.870930 141.493469,53.741856 142.229645,51.283607 
	C143.150909,51.037464 143.582748,51.120502 144.014587,51.203545 
z"/>
<path fill="#AFB5B7" opacity="1.000000" stroke="none" 
	d="
M257.499481,58.000000 
	C257.339722,56.580395 257.679443,55.160789 258.010803,53.372025 
	C259.390686,53.009556 260.778900,53.016247 262.583557,53.011467 
	C263.000000,54.587467 263.000000,56.174931 263.000000,58.000000 
	C261.335876,58.000000 259.667419,58.000000 257.499481,58.000000 
z"/>
<path fill="#EBF0F3" opacity="1.000000" stroke="none" 
	d="
M161.399994,58.000000 
	C160.757797,56.887337 160.515579,55.774673 160.347397,54.226608 
	C160.617126,53.521282 160.812820,53.251366 161.008499,52.981445 
	C162.873901,53.153255 164.739304,53.325069 166.801422,53.751373 
	C166.335693,55.108719 165.673264,56.211571 165.005417,57.657211 
	C163.933334,58.000000 162.866653,58.000000 161.399994,58.000000 
z"/>
<path fill="#D9DEE0" opacity="1.000000" stroke="none" 
	d="
M91.317474,8.827357 
	C90.673309,6.600297 90.345695,4.202791 90.009041,1.402642 
	C91.066673,1.000000 92.133339,1.000000 93.600006,0.999999 
	C93.211342,3.552302 92.422691,6.104607 91.317474,8.827357 
z"/>
<path fill="#D4E2E6" opacity="1.000000" stroke="none" 
	d="
M56.562500,0.999999 
	C56.735134,1.491894 56.470272,1.983788 55.797901,2.764704 
	C54.914886,3.392611 54.439377,3.731496 53.692116,4.074656 
	C53.239925,4.061868 53.059490,4.044804 52.667217,3.791216 
	C51.646782,3.319683 50.838184,3.084673 49.979351,2.739248 
	C49.929119,2.628832 49.818920,2.412694 49.873260,2.060683 
	C49.951733,1.472448 49.975864,1.236224 50.000000,1.000000 
	C52.041668,1.000000 54.083332,1.000000 56.562500,0.999999 
z"/>
<path fill="#F3F7F4" opacity="1.000000" stroke="none" 
	d="
M139.625000,0.999999 
	C139.525925,2.225289 139.051865,3.450579 138.577789,4.675869 
	C138.263016,4.642073 137.948242,4.608276 137.633453,4.574480 
	C137.423019,3.622364 137.212601,2.670247 137.001083,1.359066 
	C137.750000,1.000000 138.500000,1.000000 139.625000,0.999999 
z"/>
<path fill="#38B9B3" opacity="1.000000" stroke="none" 
	d="
M49.818920,2.412694 
	C49.818920,2.412694 49.929119,2.628832 49.732754,2.903715 
	C49.292656,3.490615 49.048923,3.802631 48.500587,4.187681 
	C47.783043,4.204306 47.370106,4.147896 46.957161,4.091486 
	C46.296909,3.273956 45.636658,2.456424 44.988205,1.319446 
	C45.444447,1.000000 45.888889,1.000000 46.871738,1.249020 
	C48.213066,1.802925 49.015995,2.107810 49.818920,2.412694 
z"/>
<path fill="#CCDCD7" opacity="1.000000" stroke="none" 
	d="
M34.666668,1.000000 
	C34.766510,1.508942 34.533020,2.017884 34.299530,2.526826 
	C33.890347,2.215191 33.481163,1.903555 33.035988,1.295960 
	C33.444447,1.000000 33.888889,1.000000 34.666668,1.000000 
z"/>
<path fill="#7EF2F1" opacity="1.000000" stroke="none" 
	d="
M49.873260,2.060683 
	C49.015995,2.107810 48.213066,1.802925 47.205070,1.249020 
	C47.750000,1.000000 48.500000,1.000000 49.625000,1.000000 
	C49.975864,1.236224 49.951733,1.472448 49.873260,2.060683 
z"/>
<path fill="#ECF6F4" opacity="1.000000" stroke="none" 
	d="
M160.988235,52.670944 
	C160.812820,53.251366 160.617126,53.521282 160.198608,53.912514 
	C155.163834,54.286201 150.086990,55.257248 147.232040,48.778862 
	C146.625488,45.042412 146.299164,41.967007 145.972855,38.891605 
	C145.345505,38.811462 144.718155,38.731319 144.090805,38.651176 
	C143.344513,39.762119 142.598221,40.873066 141.851929,41.984005 
	C140.368744,42.626797 138.885574,43.269588 137.088135,43.484337 
	C137.043442,37.014198 137.312973,30.972095 137.607590,24.516556 
	C136.619431,21.124607 135.606201,18.146097 134.592957,15.167585 
	C136.124237,15.126431 137.655533,15.085276 139.620117,15.524727 
	C140.033752,20.864166 139.175430,25.822104 142.601471,30.124725 
	C144.660172,32.710163 146.517807,32.896969 147.570648,29.711344 
	C148.737885,26.179483 149.230835,22.424770 150.017380,18.767094 
	C150.358536,18.816191 150.699677,18.865290 151.514008,19.400517 
	C149.193192,29.212770 149.921219,38.207546 153.688217,47.234062 
	C155.229065,50.926266 157.008911,52.595757 160.899246,51.741928 
	C160.922150,51.948101 160.945068,52.154270 160.988235,52.670944 
z"/>
<path fill="#192E3F" opacity="1.000000" stroke="none" 
	d="
M175.991425,51.969925 
	C175.543900,51.969433 175.096359,51.968941 174.042664,51.912384 
	C172.708191,51.539707 171.979919,51.223099 171.251633,50.906490 
	C165.320099,40.880409 165.514755,30.264450 168.314209,19.438883 
	C169.178635,16.096098 170.911469,12.921064 174.756561,13.076832 
	C178.532074,13.229780 179.385483,16.609974 180.698090,19.786505 
	C183.837662,27.384302 182.946274,34.939762 181.519958,43.281364 
	C180.037445,46.252335 178.814896,48.556194 177.342224,50.901733 
	C176.725204,51.285580 176.358322,51.627750 175.991425,51.969925 
M173.815613,45.818790 
	C174.450348,45.788757 175.221924,45.984016 175.698929,45.694302 
	C181.257385,42.318268 181.958603,22.644165 176.459290,19.240578 
	C175.323563,18.537661 172.247879,19.024399 171.450150,20.044739 
	C167.182709,25.502981 168.355698,39.788486 173.815613,45.818790 
z"/>
<path fill="#132638" opacity="1.000000" stroke="none" 
	d="
M215.286652,13.104816 
	C215.943054,14.464532 217.145309,15.814841 217.168915,17.185461 
	C217.346313,27.479900 217.291382,37.778343 217.404160,48.535210 
	C216.678558,49.692638 215.857941,50.390388 214.604828,50.600403 
	C213.761566,48.185314 213.526886,46.199097 212.906052,44.341965 
	C211.235260,39.344009 209.399612,34.401154 207.482483,29.199429 
	C207.190155,28.031492 207.044769,27.100552 206.937622,25.874016 
	C206.573517,25.216230 206.171188,24.854038 205.768860,24.491844 
	C205.834534,24.993013 205.900208,25.494186 205.968872,26.381596 
	C206.021683,28.295267 206.071518,29.822701 206.049911,31.715288 
	C206.035767,35.054508 206.093048,38.028572 206.055206,41.439171 
	C206.023834,44.253326 206.087601,46.630951 206.151337,49.008575 
	C205.713394,49.856068 205.275452,50.703560 204.480637,51.402206 
	C203.856354,50.167587 203.588943,49.081810 203.455215,47.659119 
	C203.495163,45.878963 203.401398,44.435730 203.448807,42.666058 
	C203.495087,41.885033 203.400208,41.430443 203.305328,40.975853 
	C203.305328,32.135563 203.305328,23.295273 203.305328,12.948042 
	C204.923737,14.777573 205.543915,15.478639 206.200211,16.926775 
	C206.606293,18.452627 206.976242,19.231407 207.346191,20.010189 
	C208.301025,22.754839 209.255875,25.499483 210.169525,28.881779 
	C210.420792,29.668131 210.713211,29.816832 211.005646,29.965530 
	C211.075012,30.413992 211.144379,30.862453 211.241058,32.000980 
	C212.359344,34.788353 213.450333,36.885658 214.819641,39.517982 
	C214.819641,35.664371 214.819641,32.330658 214.819641,28.996946 
	C214.883881,27.601042 214.948135,26.205137 215.017212,24.005255 
	C214.968872,22.138960 214.915710,21.076643 214.862549,20.014328 
	C214.920380,19.565914 214.978226,19.117500 215.051910,17.935360 
	C215.140717,15.836026 215.213684,14.470422 215.286652,13.104816 
z"/>
<path fill="#19A051" opacity="1.000000" stroke="none" 
	d="
M149.974670,18.556583 
	C149.230835,22.424770 148.737885,26.179483 147.570648,29.711344 
	C146.517807,32.896969 144.660172,32.710163 142.601471,30.124725 
	C139.175430,25.822104 140.033752,20.864166 140.079041,15.553635 
	C140.104675,15.101936 140.050598,15.071246 140.318939,15.002686 
	C140.734192,14.621304 140.881104,14.308483 141.028030,13.995663 
	C141.809784,12.644936 142.591522,11.294208 143.516113,9.638584 
	C143.658936,9.333689 143.871597,9.331239 144.256012,9.265021 
	C145.085068,9.158732 145.529724,9.118662 145.974380,9.078591 
	C146.547653,9.911364 147.120911,10.744136 147.929718,12.141996 
	C148.706924,14.023075 149.248581,15.339066 149.790237,16.655056 
	C149.837479,17.218731 149.884720,17.782402 149.974670,18.556583 
z"/>
<path fill="#1C2F3D" opacity="1.000000" stroke="none" 
	d="
M161.061035,51.445610 
	C157.008911,52.595757 155.229065,50.926266 153.688217,47.234062 
	C149.921219,38.207546 149.193192,29.212770 152.026459,19.468937 
	C152.065735,19.051224 152.016785,19.025732 152.275314,18.964327 
	C152.627167,18.604422 152.720490,18.305923 152.813812,18.007421 
	C154.283951,16.627695 155.754074,15.247972 157.493881,14.135061 
	C157.496277,15.829690 157.229019,17.257505 156.961746,18.685322 
	C152.588043,24.555197 152.050156,37.681629 155.939560,43.630890 
	C158.194092,47.079426 160.048843,46.674084 163.759598,41.848789 
	C166.618881,46.012604 164.075073,48.622284 161.061035,51.445610 
z"/>
<path fill="#051625" opacity="1.000000" stroke="none" 
	d="
M199.765442,50.911922 
	C199.366913,50.953865 198.968399,50.995808 197.945587,50.917084 
	C195.709930,45.567261 194.098572,40.338112 192.903152,35.087036 
	C193.873901,35.045357 194.428711,35.025604 194.983536,35.005852 
	C195.312225,35.769054 195.640915,36.532257 195.970551,37.969639 
	C196.406799,39.343109 196.842072,40.042404 197.277344,40.741695 
	C197.491547,40.650978 197.705750,40.560265 197.919952,40.469547 
	C197.801132,39.539196 197.682327,38.608845 197.563507,37.678490 
	C197.563507,29.604904 197.563507,21.531321 197.563507,13.457735 
	C198.027100,13.428804 198.490692,13.399875 198.954285,13.370944 
	C200.527374,22.180775 199.069550,31.213026 199.712158,40.873745 
	C199.806885,42.103504 199.884796,42.551891 199.852646,43.407463 
	C199.810562,45.209969 199.878525,46.605301 199.829987,48.351372 
	C199.730804,49.438717 199.748123,50.175320 199.765442,50.911922 
z"/>
<path fill="#1B3243" opacity="1.000000" stroke="none" 
	d="
M195.001297,34.617218 
	C194.428711,35.025604 193.873901,35.045357 192.696396,34.834126 
	C191.368301,32.743893 190.662888,30.884649 189.969864,28.678070 
	C189.513123,27.409828 189.043991,26.488922 188.574875,25.568016 
	C188.357269,25.637472 188.139679,25.706926 187.922073,25.776382 
	C188.014832,27.197092 188.107590,28.617804 188.150101,30.285982 
	C188.036957,30.689610 187.974060,30.845768 187.599945,31.001183 
	C186.873749,31.000492 186.458786,31.000544 186.043823,31.000595 
	C185.936584,27.946455 185.829361,24.892313 185.744293,20.987160 
	C185.733734,18.770369 185.701004,17.404593 185.668274,16.038815 
	C185.881989,15.095927 186.095718,14.153040 186.309433,13.210153 
	C186.753159,13.078543 187.196884,12.946933 187.640610,12.815323 
	C190.100098,19.953079 192.559586,27.090836 195.001297,34.617218 
z"/>
<path fill="#243E51" opacity="1.000000" stroke="none" 
	d="
M157.361847,18.590641 
	C157.229019,17.257505 157.496277,15.829690 157.835175,14.043753 
	C159.856705,14.212490 162.411057,14.173387 163.584778,15.426970 
	C164.735504,16.655989 164.481430,19.200314 164.896332,21.451826 
	C161.827744,20.180471 159.794861,19.338215 157.361847,18.590641 
z"/>
<path fill="#1A3240" opacity="1.000000" stroke="none" 
	d="
M185.957428,31.336311 
	C186.458786,31.000544 186.873749,31.000492 187.695160,31.235085 
	C188.143555,31.632793 188.185486,31.795856 188.142502,32.229683 
	C188.118942,32.679398 188.180313,32.858345 188.196503,33.446732 
	C188.195709,35.226746 188.240082,36.597328 188.179626,38.380508 
	C188.146027,40.202236 188.217255,41.611370 188.239151,43.459255 
	C187.058823,46.406979 190.620605,50.176964 186.074936,51.768356 
	C186.000793,49.129539 185.926651,46.490719 185.757843,43.417755 
	C185.726212,41.261349 185.789276,39.539085 185.875137,37.005669 
	C185.826965,35.143654 185.755981,34.092796 185.685013,33.041943 
	C185.747025,32.585304 185.809021,32.128666 185.957428,31.336311 
z"/>
<path fill="#F0F5F7" opacity="1.000000" stroke="none" 
	d="
M177.592346,50.860054 
	C178.814896,48.556194 180.037445,46.252335 181.515259,43.686325 
	C182.180283,45.336712 182.590042,47.249252 182.999817,49.585625 
	C182.226898,50.340279 181.453995,50.671093 179.941483,50.991882 
	C178.665375,50.941257 178.128860,50.900658 177.592346,50.860054 
z"/>
<path fill="#F1F7F8" opacity="1.000000" stroke="none" 
	d="
M214.509476,29.056347 
	C214.819641,32.330658 214.819641,35.664371 214.819641,39.517982 
	C213.450333,36.885658 212.359344,34.788353 211.284988,32.340248 
	C212.267517,31.031551 213.233414,30.073648 214.509476,29.056347 
z"/>
<path fill="#EBF0F3" opacity="1.000000" stroke="none" 
	d="
M170.937622,51.044815 
	C171.979919,51.223099 172.708191,51.539707 173.715179,51.993271 
	C172.471222,52.925758 170.948563,53.721298 169.214233,54.261379 
	C169.542908,53.064991 170.083252,52.124065 170.937622,51.044815 
z"/>
<path fill="#F1F7F8" opacity="1.000000" stroke="none" 
	d="
M214.906708,13.075682 
	C215.213684,14.470422 215.140717,15.836026 214.975067,17.602779 
	C214.012558,17.522022 213.142746,17.040119 212.135544,16.277428 
	C212.160751,15.135801 212.323334,14.274965 212.744781,13.204294 
	C213.511368,13.011822 214.019073,13.029185 214.906708,13.075682 
z"/>
<path fill="#F1F7F8" opacity="1.000000" stroke="none" 
	d="
M207.670013,20.000198 
	C206.976242,19.231407 206.606293,18.452627 206.260529,17.332541 
	C207.398941,17.587801 208.513153,18.184366 209.627365,18.780930 
	C209.082855,19.184021 208.538330,19.587114 207.670013,20.000198 
z"/>
<path fill="#F1F7F8" opacity="1.000000" stroke="none" 
	d="
M199.962692,43.000282 
	C199.884796,42.551891 199.806885,42.103504 199.840027,41.327446 
	C200.846573,40.997272 201.742065,40.994770 202.971436,40.984062 
	C203.400208,41.430443 203.495087,41.885033 203.114563,42.669685 
	C201.746994,42.999928 200.854843,43.000107 199.962692,43.000282 
z"/>
<path fill="#6B7A86" opacity="1.000000" stroke="none" 
	d="
M197.308090,37.691147 
	C197.682327,38.608845 197.801132,39.539196 197.919952,40.469547 
	C197.705750,40.560265 197.491547,40.650978 197.277344,40.741695 
	C196.842072,40.042404 196.406799,39.343109 196.030060,38.277817 
	C196.409958,37.842484 196.731308,37.773148 197.308090,37.691147 
z"/>
<path fill="#ECF6F4" opacity="1.000000" stroke="none" 
	d="
M149.848770,16.237846 
	C149.248581,15.339066 148.706924,14.023075 148.150772,12.351772 
	C148.726639,13.271185 149.316971,14.545910 149.848770,16.237846 
z"/>
<path fill="#E7EBEB" opacity="1.000000" stroke="none" 
	d="
M185.461548,16.291088 
	C185.701004,17.404593 185.733734,18.770369 185.666122,20.534601 
	C185.462128,19.469824 185.358475,18.006594 185.461548,16.291088 
z"/>
<path fill="#F1F7F8" opacity="1.000000" stroke="none" 
	d="
M214.633240,20.238907 
	C214.915710,21.076643 214.968872,22.138960 214.936218,23.592621 
	C214.701569,22.810474 214.552750,21.636980 214.633240,20.238907 
z"/>
<path fill="#E7EBEB" opacity="1.000000" stroke="none" 
	d="
M185.481812,33.274258 
	C185.755981,34.092796 185.826965,35.143654 185.801178,36.580006 
	C185.562469,35.812527 185.420547,34.659550 185.481812,33.274258 
z"/>
<path fill="#F3F7F4" opacity="1.000000" stroke="none" 
	d="
M145.833908,8.838644 
	C145.529724,9.118662 145.085068,9.158732 144.306183,9.171283 
	C144.545792,8.962073 145.119614,8.780385 145.833908,8.838644 
z"/>
<path fill="#ECF6F4" opacity="1.000000" stroke="none" 
	d="
M152.629608,18.140411 
	C152.720490,18.305923 152.627167,18.604422 152.288849,18.988274 
	C152.086121,18.760925 152.219971,18.494183 152.629608,18.140411 
z"/>
<path fill="#F1F7F8" opacity="1.000000" stroke="none" 
	d="
M210.935242,29.777973 
	C210.713211,29.816832 210.420792,29.668131 210.217499,29.273468 
	C210.547470,29.160852 210.733536,29.348490 210.935242,29.777973 
z"/>
<path fill="#192A3A" opacity="1.000000" stroke="none" 
	d="
M227.680923,12.990959 
	C230.270462,13.103942 233.075333,12.721397 231.626282,17.213799 
	C228.514130,18.469885 225.855484,19.082726 223.024872,19.735203 
	C223.024872,20.992367 223.003159,22.288664 223.030609,23.583920 
	C223.061691,25.050882 223.136841,26.516909 223.155060,28.303310 
	C224.406586,28.718008 225.695877,28.812735 227.348816,29.040901 
	C228.468979,29.067528 229.225494,28.960714 230.299225,29.136223 
	C230.818512,31.078531 231.020599,32.738518 231.253357,34.650341 
	C228.476196,34.809288 226.387405,34.928837 224.035828,35.063427 
	C224.035828,38.586021 224.035828,41.791523 224.035828,45.144131 
	C226.759766,45.267513 229.205627,45.378296 231.915375,45.501034 
	C232.110077,47.105247 232.284485,48.542233 232.458893,49.979214 
	C232.356873,50.163040 232.254852,50.346870 231.753723,50.908417 
	C230.211411,51.411495 229.068207,51.536854 227.925003,51.662212 
	C226.186569,51.558773 224.448120,51.455334 222.340408,51.437607 
	C221.868408,51.377266 221.765686,51.231209 221.403412,51.019073 
	C221.179443,39.312691 221.215012,27.672396 221.651184,15.543163 
	C223.394485,14.444090 224.737228,13.833953 226.079956,13.223814 
	C226.509766,13.176583 226.939560,13.129354 227.680923,12.990959 
z"/>
<path fill="#F0F5F7" opacity="1.000000" stroke="none" 
	d="
M188.284454,37.967907 
	C188.240082,36.597328 188.195709,35.226746 188.344299,33.344570 
	C188.433990,32.541622 188.330704,32.250271 188.227417,31.958920 
	C188.185486,31.795856 188.143555,31.632793 188.006378,31.235828 
	C187.974060,30.845768 188.036957,30.689610 188.365997,30.145466 
	C189.073914,29.513454 189.515701,29.269430 189.957489,29.025406 
	C190.662888,30.884649 191.368301,32.743893 192.280472,34.856049 
	C194.098572,40.338112 195.709930,45.567261 197.654633,50.995247 
	C198.086945,51.993141 198.185928,52.792194 198.404922,54.559967 
	C196.136658,53.405373 194.435684,52.539536 192.721863,51.667160 
	C188.771637,56.951359 188.187836,57.036156 186.063049,52.145279 
	C190.620605,50.176964 187.058823,46.406979 188.452103,43.196602 
	C188.571075,40.986099 188.427765,39.477005 188.284454,37.967907 
z"/>
<path fill="#F0F4F5" opacity="1.000000" stroke="none" 
	d="
M206.150330,41.002640 
	C206.093048,38.028572 206.035767,35.054508 206.483521,31.281460 
	C207.202179,30.133793 207.415802,29.785107 207.629425,29.436424 
	C209.399612,34.401154 211.235260,39.344009 212.906052,44.341965 
	C213.526886,46.199097 213.761566,48.185314 214.184692,50.522728 
	C212.061676,50.289158 209.926300,49.645519 207.398163,48.574471 
	C206.720367,45.765583 206.435349,43.384109 206.150330,41.002640 
z"/>
<path fill="#F1F7F8" opacity="1.000000" stroke="none" 
	d="
M200.131943,51.064354 
	C199.748123,50.175320 199.730804,49.438717 200.251663,48.351227 
	C201.633728,47.998901 202.477615,47.997467 203.321518,47.996033 
	C203.588943,49.081810 203.856354,50.167587 204.230865,51.575546 
	C203.058121,51.670746 201.778290,51.443768 200.131943,51.064354 
z"/>
<path fill="#EBF0F3" opacity="1.000000" stroke="none" 
	d="
M177.342224,50.901733 
	C178.128860,50.900658 178.665375,50.941257 179.605377,50.996498 
	C180.101990,54.665245 178.369629,53.898220 176.185944,52.239616 
	C176.358322,51.627750 176.725204,51.285580 177.342224,50.901733 
z"/>
<path fill="#D7E7F1" opacity="1.000000" stroke="none" 
	d="
M206.055206,41.439171 
	C206.435349,43.384109 206.720367,45.765583 207.010162,48.572193 
	C207.014954,48.997334 206.583191,49.005245 206.367279,49.006912 
	C206.087601,46.630951 206.023834,44.253326 206.055206,41.439171 
z"/>
<path fill="#D5E7DF" opacity="1.000000" stroke="none" 
	d="
M32.006180,4.108111 
	C32.010593,4.855191 32.015007,5.602270 31.994881,6.971527 
	C31.976231,7.762321 31.982121,7.930937 31.682247,8.363386 
	C31.121767,10.901991 31.126068,13.247753 30.528376,15.428522 
	C30.070366,17.099638 28.852371,18.562458 27.548246,20.039227 
	C23.498478,20.011486 19.608543,19.230516 16.957176,23.325825 
	C16.107166,24.673120 15.500338,25.807987 14.683846,26.855885 
	C14.122196,26.484863 13.770209,26.200813 13.427896,25.600164 
	C13.258616,24.302958 13.079664,23.322348 12.900713,22.341740 
	C12.252652,22.557085 11.604592,22.772430 10.956532,22.987778 
	C10.956532,22.987778 10.490268,23.022575 10.258091,23.048243 
	C10.685592,19.660328 11.345267,16.246746 12.006580,12.422077 
	C12.559961,11.833679 13.111708,11.656365 13.832975,11.235924 
	C14.853756,10.744359 15.705015,10.495921 16.834881,10.521467 
	C18.474127,10.711704 20.053885,11.045745 21.155445,10.468010 
	C24.864084,8.522939 28.402590,6.253478 32.006180,4.108111 
z"/>
<path fill="#53626F" opacity="1.000000" stroke="none" 
	d="
M225.680908,13.119167 
	C224.737228,13.833953 223.394485,14.444090 221.687469,15.083094 
	C222.642746,14.412814 223.962311,13.713666 225.680908,13.119167 
z"/>
<path fill="#0C2131" opacity="1.000000" stroke="none" 
	d="
M82.029839,28.003696 
	C81.967529,27.555529 81.905220,27.107357 82.186905,26.327625 
	C82.698975,25.993736 82.867050,25.991413 83.393456,25.982811 
	C85.238701,24.621513 86.725616,23.266493 88.575996,22.095032 
	C89.306519,25.147001 89.673592,28.015415 89.984161,31.229717 
	C88.982079,32.052662 88.036499,32.529720 86.993744,32.707207 
	C86.862556,32.254490 86.859329,32.083839 86.785225,31.953482 
	C86.720596,31.839796 86.576057,31.771538 86.466827,31.683207 
	C86.420059,33.467781 86.373291,35.252357 86.254227,37.408005 
	C86.157982,38.534794 86.134033,39.290508 85.875832,40.035595 
	C85.641579,40.024963 85.174149,40.063255 84.785934,40.045635 
	C83.620544,40.019890 82.843369,40.011765 82.066185,40.003639 
	C81.997398,36.634438 81.928612,33.265240 82.105171,29.353306 
	C82.243629,28.541615 82.136734,28.272655 82.029839,28.003696 
z"/>
<path fill="#BEC6C8" opacity="1.000000" stroke="none" 
	d="
M85.174149,40.063255 
	C85.174149,40.063255 85.641579,40.024963 86.157684,40.329231 
	C86.773582,44.415108 86.873390,48.196709 86.973190,51.978313 
	C86.973190,51.978313 86.482109,51.995659 85.956253,51.883133 
	C84.318764,51.871666 83.207138,51.972721 82.095512,52.073776 
	C81.806000,51.864941 81.516487,51.656105 81.092148,51.211708 
	C80.957336,50.976151 80.982567,50.484928 81.354904,50.249592 
	C82.471733,49.313755 83.216217,48.613255 84.146179,47.557411 
	C84.612480,44.822468 84.893318,42.442860 85.174149,40.063255 
z"/>
<path fill="#D9DEE0" opacity="1.000000" stroke="none" 
	d="
M82.007133,10.229019 
	C84.720596,9.665264 87.429382,9.332591 90.568161,9.000474 
	C90.687782,10.103841 90.377396,11.206652 89.777786,12.654791 
	C89.318497,13.000784 89.148422,13.001450 88.674751,12.996880 
	C87.966194,12.972513 87.561226,12.953382 87.130615,12.988761 
	C87.104980,13.043269 86.988113,13.013981 86.930847,12.642582 
	C85.245995,11.821527 83.618401,11.371872 81.990814,10.922216 
	C81.990814,10.922216 82.002449,10.460103 82.007133,10.229019 
z"/>
<path fill="#0C1E2A" opacity="1.000000" stroke="none" 
	d="
M84.785934,40.045635 
	C84.893318,42.442860 84.612480,44.822468 83.849251,47.487125 
	C82.903038,47.181683 82.439232,46.591187 81.975426,46.000687 
	C81.947311,44.282307 81.919189,42.563923 81.978630,40.424591 
	C82.843369,40.011765 83.620544,40.019890 84.785934,40.045635 
z"/>
<path fill="#0C1E2A" opacity="1.000000" stroke="none" 
	d="
M83.035133,25.989090 
	C82.867050,25.991413 82.698975,25.993736 82.278755,25.997635 
	C81.965630,21.641018 81.904640,17.282827 82.279297,12.583097 
	C84.139328,12.499033 85.563721,12.756507 86.988113,13.013981 
	C86.988113,13.013981 87.104980,13.043269 87.179703,13.316569 
	C87.286621,14.027342 87.318825,14.464815 87.004791,14.835015 
	C85.442955,15.843304 83.450111,16.752056 83.175911,18.029655 
	C82.629517,20.575607 83.027344,23.324202 83.035133,25.989090 
z"/>
<path fill="#9DA8B0" opacity="1.000000" stroke="none" 
	d="
M81.695160,46.222366 
	C82.439232,46.591187 82.903038,47.181683 83.663780,47.842468 
	C83.216217,48.613255 82.471733,49.313755 81.365448,50.003883 
	C81.140732,48.810352 81.277809,47.627201 81.695160,46.222366 
z"/>
<path fill="#9DA8B0" opacity="1.000000" stroke="none" 
	d="
M86.930847,12.642582 
	C85.563721,12.756507 84.139328,12.499033 82.359055,12.124716 
	C81.992287,11.827224 81.981392,11.646575 81.980652,11.194071 
	C83.618401,11.371872 85.245995,11.821527 86.930847,12.642582 
z"/>
<path fill="#0C1E2A" opacity="1.000000" stroke="none" 
	d="
M81.956291,28.251987 
	C82.136734,28.272655 82.243629,28.541615 82.193962,28.902565 
	C81.985855,28.829798 81.934296,28.665039 81.956291,28.251987 
z"/>
<path fill="#2B505A" opacity="1.000000" stroke="none" 
	d="
M67.711777,21.135094 
	C67.762825,21.565607 67.813873,21.996119 67.973694,23.056534 
	C68.322075,24.018717 68.561684,24.350996 68.801292,24.683273 
	C68.801292,24.683275 68.577980,24.564846 68.488419,25.128363 
	C69.068062,32.201511 67.735756,38.117382 62.845123,43.024818 
	C62.191441,42.919247 61.929085,42.882595 61.774727,42.490395 
	C63.149990,38.762486 64.417252,35.390125 65.816818,31.655247 
	C65.217758,26.682829 64.486397,22.072929 63.899452,17.166405 
	C64.364830,16.579046 64.685799,16.288311 65.218056,16.134218 
	C65.576401,16.351589 65.723450,16.432320 65.870491,16.513048 
	C65.870491,16.513048 65.840584,16.808577 65.950714,17.242710 
	C66.611153,18.829592 67.161469,19.982342 67.711777,21.135094 
z"/>
<path fill="#DBEBF4" opacity="1.000000" stroke="none" 
	d="
M63.236458,43.093739 
	C67.735756,38.117382 69.068062,32.201511 68.420677,25.235058 
	C72.133957,29.686577 69.004341,34.689960 68.583992,39.639374 
	C68.477776,40.890060 67.750641,42.088020 67.156227,43.656265 
	C63.921234,46.932026 60.885471,49.914070 57.711533,52.740982 
	C57.169369,53.223866 56.036465,53.043488 55.210365,52.625122 
	C57.908333,49.085064 60.572395,46.089401 63.236458,43.093739 
z"/>
<path fill="#DBEBF4" opacity="1.000000" stroke="none" 
	d="
M65.896805,16.114193 
	C65.723450,16.432320 65.576401,16.351589 65.156464,15.799697 
	C63.036713,13.113368 61.189854,10.898203 59.507057,8.512482 
	C59.671127,8.341928 59.999275,8.000834 60.324593,8.030687 
	C61.766472,8.705552 62.883030,9.350563 63.999596,9.995573 
	C64.640770,11.902160 65.281952,13.808749 65.896805,16.114193 
z"/>
<path fill="#D4E2E6" opacity="1.000000" stroke="none" 
	d="
M64.170738,9.754909 
	C62.883030,9.350563 61.766472,8.705552 60.324997,7.696992 
	C60.002457,6.888532 60.004837,6.443619 60.007214,5.998706 
	C61.963219,6.761569 63.919224,7.524431 65.936699,8.643211 
	C65.446075,9.170833 64.893982,9.342538 64.170738,9.754909 
z"/>
<path fill="#D4E2E6" opacity="1.000000" stroke="none" 
	d="
M74.569466,16.996174 
	C74.951134,18.058928 74.966820,19.124100 74.966217,20.587910 
	C73.990211,19.887375 73.030487,18.788204 72.036568,17.345203 
	C72.736069,17.000444 73.469780,16.999517 74.569466,16.996174 
z"/>
<path fill="#DBEBF4" opacity="1.000000" stroke="none" 
	d="
M67.987572,20.959696 
	C67.161469,19.982342 66.611153,18.829592 66.066475,17.335751 
	C66.802528,18.257870 67.532944,19.521084 67.987572,20.959696 
z"/>
<path fill="#DBEBF4" opacity="1.000000" stroke="none" 
	d="
M68.794342,24.369537 
	C68.561684,24.350996 68.322075,24.018717 68.103188,23.356583 
	C68.345070,23.369753 68.566231,23.712776 68.794342,24.369537 
z"/>
<path fill="#F2F7F9" opacity="1.000000" stroke="none" 
	d="
M106.757919,10.165110 
	C111.871399,9.519241 116.794510,8.681505 121.557343,11.936793 
	C121.937737,11.983703 122.013596,12.012857 121.995041,12.479910 
	C121.915291,18.950592 121.854088,24.954220 121.554077,30.971264 
	C121.072945,31.156895 120.830635,31.329113 120.588318,31.501331 
	C120.987793,31.681833 121.387276,31.862333 121.849075,32.435181 
	C121.843658,33.879692 121.775917,34.931850 121.345322,36.000137 
	C120.033241,38.189037 119.084007,40.361805 117.738220,42.523026 
	C116.245056,42.329315 115.145737,41.977165 114.052330,41.994701 
	C109.552826,42.066879 109.068787,39.930283 110.846710,36.416237 
	C110.837509,36.393909 110.854431,36.442116 111.201683,36.242432 
	C113.281128,36.042744 115.013321,36.042744 116.651855,36.042744 
	C116.651855,32.837337 116.651855,30.158934 116.651855,27.127148 
	C114.513718,27.127148 112.731125,27.127148 110.801292,26.706661 
	C110.610321,24.804129 110.566589,23.322081 110.999672,21.843325 
	C113.531189,21.846615 115.585892,21.846615 117.842957,21.846615 
	C117.842957,18.256977 117.842957,15.224199 117.842957,12.020512 
	C116.472801,12.020512 115.234528,12.020512 113.562332,11.955889 
	C111.087776,11.956475 109.047134,12.021683 106.763100,11.985005 
	C106.347549,11.919134 106.175377,11.955149 106.003197,11.991161 
	C106.175194,11.439198 106.347191,10.887236 106.757919,10.165110 
z"/>
<path fill="#142E3F" opacity="1.000000" stroke="none" 
	d="
M94.873291,16.003859 
	C94.873291,16.003859 95.045860,15.613008 95.060120,15.399849 
	C96.920731,13.853262 98.767075,12.519833 101.684029,10.413216 
	C101.849831,13.904640 101.925766,15.503633 101.588348,17.754135 
	C101.520905,23.266401 101.866806,28.127159 102.212708,32.987915 
	C102.203186,38.008793 102.193665,43.029667 102.112198,48.818665 
	C101.676704,50.380470 101.313164,51.174156 100.949623,51.967838 
	C100.949623,51.967838 100.975616,52.006855 100.567337,51.997040 
	C99.439728,50.544209 98.171799,49.128269 98.099030,47.653358 
	C97.829239,42.185337 97.953354,36.697876 97.920776,30.849422 
	C96.966942,27.322617 96.021828,24.164112 95.055923,20.582676 
	C94.981186,18.774448 94.927238,17.389154 94.873291,16.003859 
z"/>
<path fill="#091E2F" opacity="1.000000" stroke="none" 
	d="
M110.855911,36.438560 
	C109.068787,39.930283 109.552826,42.066879 114.052330,41.994701 
	C115.145737,41.977165 116.245056,42.329315 117.893509,42.981743 
	C118.396599,45.999680 118.347839,48.547352 118.299088,51.095024 
	C118.299088,51.095024 118.185287,50.964306 117.653427,51.014160 
	C113.487602,50.942085 109.853638,50.820160 106.219673,50.698235 
	C106.219673,50.698235 106.221107,50.308380 106.103241,50.153103 
	C106.019081,43.650871 106.052788,37.303917 106.349625,30.496960 
	C106.612740,30.036955 107.026649,30.000593 107.307541,30.287262 
	C108.677597,32.528809 109.766754,34.483685 110.855911,36.438560 
z"/>
<path fill="#0A2638" opacity="1.000000" stroke="none" 
	d="
M110.846710,36.416237 
	C109.766754,34.483685 108.677597,32.528809 107.216293,30.082432 
	C106.701050,29.313530 106.486069,29.113314 106.199211,28.990280 
	C106.175598,23.970400 106.151993,18.950520 106.385651,13.381196 
	C106.872078,12.636174 106.993263,12.387888 107.006485,12.086891 
	C109.047134,12.021683 111.087776,11.956475 113.511627,12.303072 
	C112.770844,15.756597 111.646851,18.798317 110.522858,21.840034 
	C110.566589,23.322081 110.610321,24.804129 110.656448,27.032848 
	C110.724045,30.667051 110.789238,33.554585 110.854431,36.442116 
	C110.854431,36.442116 110.837509,36.393909 110.846710,36.416237 
z"/>
<path fill="#CBD4D7" opacity="1.000000" stroke="none" 
	d="
M102.459976,32.660805 
	C101.866806,28.127159 101.520905,23.266401 101.541290,18.184103 
	C102.174126,22.752937 102.440681,27.543314 102.459976,32.660805 
z"/>
<path fill="#CBD4D7" opacity="1.000000" stroke="none" 
	d="
M101.301025,51.930683 
	C101.313164,51.174156 101.676704,50.380470 102.186935,49.278084 
	C102.333618,48.969387 102.703247,48.949169 102.888138,48.968441 
	C102.599487,49.956318 102.125961,50.924923 101.301025,51.930683 
z"/>
<path fill="#294253" opacity="1.000000" stroke="none" 
	d="
M106.763100,11.985006 
	C106.993263,12.387888 106.872078,12.636174 106.449631,12.918756 
	C106.187294,12.843397 106.118263,12.681034 106.026215,12.254917 
	C106.175377,11.955149 106.347549,11.919134 106.763100,11.985006 
z"/>
<path fill="#294253" opacity="1.000000" stroke="none" 
	d="
M106.106705,29.250023 
	C106.486069,29.113314 106.701050,29.313530 106.935402,29.795761 
	C107.026649,30.000593 106.612740,30.036955 106.405014,30.033443 
	C106.136253,29.856543 106.075218,29.683153 106.106705,29.250023 
z"/>
<path fill="#E0E7EA" opacity="1.000000" stroke="none" 
	d="
M232.865356,49.979797 
	C232.284485,48.542233 232.110077,47.105247 231.915375,45.501034 
	C229.205627,45.378296 226.759766,45.267513 224.035828,45.144131 
	C224.035828,41.791523 224.035828,38.586021 224.035828,35.063427 
	C226.387405,34.928837 228.476196,34.809288 231.253357,34.650341 
	C231.020599,32.738518 230.818512,31.078531 230.210327,28.792969 
	C229.475296,27.825775 229.156311,27.473846 228.815582,27.144405 
	C227.582916,25.952564 226.342972,24.768284 225.105759,23.581161 
	C226.467865,22.722031 227.843491,21.883394 229.187500,20.996826 
	C230.147003,20.363880 231.064087,19.666590 232.000107,18.998014 
	C233.065323,18.998020 234.130524,18.998022 235.568634,19.405788 
	C232.775024,30.300844 233.153061,40.427624 239.011475,49.996994 
	C237.098251,49.991455 235.185028,49.985916 232.865356,49.979797 
z"/>
<path fill="#132330" opacity="1.000000" stroke="none" 
	d="
M239.328171,50.179001 
	C233.153061,40.427624 232.775024,30.300844 235.968079,19.405628 
	C236.933853,17.549427 237.873093,16.101149 238.913757,14.330820 
	C239.015198,14.008768 238.998413,14.010543 239.379974,13.940082 
	C245.812576,12.223172 248.449890,14.811613 247.563675,21.527178 
	C241.683029,16.984579 240.821365,17.101324 238.065796,22.618441 
	C234.428543,29.900887 235.930298,36.812748 239.736084,43.421295 
	C241.457306,46.410118 243.715637,46.630520 246.038101,43.673740 
	C246.458023,43.139137 247.774765,43.308979 248.740173,43.511898 
	C248.532501,45.246014 248.262146,46.621830 247.991791,47.997643 
	C245.602463,50.173409 243.842926,54.573368 239.328171,50.179001 
z"/>
<path fill="#D7DEDF" opacity="1.000000" stroke="none" 
	d="
M248.356262,47.990356 
	C248.262146,46.621830 248.532501,45.246014 249.062531,43.279762 
	C249.322220,36.274925 249.322220,29.860521 249.322220,23.275255 
	C251.981888,23.608337 253.599045,23.810862 255.365784,24.457111 
	C255.502777,31.266481 255.490189,37.632126 255.477600,43.997772 
	C253.225311,45.326202 250.973022,46.654636 248.356262,47.990356 
z"/>
<path fill="#061219" opacity="1.000000" stroke="none" 
	d="
M255.576508,44.418285 
	C255.490189,37.632126 255.502777,31.266481 255.511200,24.080566 
	C255.592651,22.192097 255.678253,21.123898 255.763855,20.055698 
	C256.212128,20.047655 256.660400,20.039610 257.445068,20.032198 
	C257.853149,29.691166 257.924835,39.349503 257.465820,49.456478 
	C256.629974,49.936314 256.324860,49.967503 256.019775,49.998692 
	C255.904999,48.278728 255.790207,46.558762 255.576508,44.418285 
z"/>
<path fill="#CACED2" opacity="1.000000" stroke="none" 
	d="
M227.945084,51.991177 
	C229.068207,51.536854 230.211411,51.411495 231.703217,51.219700 
	C230.954147,51.763393 229.856491,52.373524 228.380524,52.991978 
	C228.002213,53.000301 228.011353,52.977673 228.011353,52.977673 
	C227.995972,52.758495 227.980576,52.539318 227.945084,51.991177 
z"/>
<path fill="#E7EBEB" opacity="1.000000" stroke="none" 
	d="
M228.014999,52.995018 
	C227.117905,53.371605 226.208038,53.753475 225.298157,54.135342 
	C225.203247,53.862865 225.108353,53.590389 225.013443,53.317909 
	C225.788254,53.210537 226.563049,53.103161 227.674606,52.986732 
	C228.011353,52.977673 228.002213,53.000301 228.014999,52.995018 
z"/>
<path fill="#1B2832" opacity="1.000000" stroke="none" 
	d="
M255.917786,50.248722 
	C256.324860,49.967503 256.629974,49.936314 257.391052,49.840714 
	C257.847015,49.776306 258.062378,49.856796 258.167694,49.902927 
	C258.196289,50.110321 258.119568,50.271584 257.670593,50.786278 
	C256.832977,51.157669 256.367676,51.175625 255.902390,51.193581 
	C255.902390,51.193581 255.885620,50.996086 255.787323,51.009911 
	C255.731262,50.848743 255.773529,50.673748 255.917786,50.248722 
z"/>
<path fill="#EEF7FB" opacity="1.000000" stroke="none" 
	d="
M231.960602,18.577999 
	C231.064087,19.666590 230.147003,20.363880 229.187500,20.996826 
	C227.843491,21.883394 226.467865,22.722031 225.105759,23.581161 
	C226.342972,24.768284 227.582916,25.952564 228.815582,27.144405 
	C229.156311,27.473846 229.475296,27.825775 229.893143,28.510647 
	C229.225494,28.960714 228.468979,29.067528 227.131012,28.781860 
	C225.430664,28.254034 224.311737,28.118689 223.192825,27.983343 
	C223.136841,26.516909 223.061691,25.050882 223.030609,23.583920 
	C223.003159,22.288664 223.024872,20.992367 223.024872,19.735203 
	C225.855484,19.082726 228.514130,18.469885 231.523041,17.586327 
	C231.889206,17.596399 231.905151,17.877192 231.960602,18.577999 
z"/>
<path fill="#ECF6F4" opacity="1.000000" stroke="none" 
	d="
M122.748352,10.163788 
	C127.999489,8.381612 132.157944,9.714876 133.559174,13.735661 
	C130.453918,13.333527 127.717049,12.702128 124.616837,11.976932 
	C123.506859,11.926374 122.760223,11.969616 122.013596,12.012857 
	C122.013596,12.012857 121.937737,11.983703 121.906113,11.958275 
	C122.086052,11.398141 122.297623,10.863435 122.748352,10.163788 
z"/>
<path fill="#264254" opacity="1.000000" stroke="none" 
	d="
M124.980179,12.070730 
	C127.717049,12.702128 130.453918,13.333527 133.534271,14.132720 
	C133.879608,14.591255 133.993347,14.828317 134.405960,15.089643 
	C135.606201,18.146097 136.619431,21.124607 137.131042,24.525906 
	C135.363846,24.954760 134.098297,24.960829 132.806976,24.872658 
	C132.781189,24.778416 132.930542,24.652412 132.848175,24.328779 
	C132.479568,23.677887 132.193329,23.350628 131.616211,22.857931 
	C129.901199,22.138437 128.477066,21.584383 126.656158,21.018034 
	C125.527794,19.632141 124.374527,18.315357 124.179703,16.869434 
	C123.972778,15.333698 124.674980,13.675467 124.980179,12.070730 
z"/>
<path fill="#ECF6F4" opacity="1.000000" stroke="none" 
	d="
M140.800858,14.121290 
	C140.881104,14.308483 140.734192,14.621304 140.325912,15.032910 
	C140.234253,14.836771 140.403976,14.541845 140.800858,14.121290 
z"/>
<path fill="#DBE1E4" opacity="1.000000" stroke="none" 
	d="
M255.542862,19.762333 
	C255.678253,21.123898 255.592651,22.192097 255.361633,23.636841 
	C253.599045,23.810862 251.981888,23.608337 249.322220,23.275255 
	C249.322220,29.860521 249.322220,36.274925 248.999847,42.921463 
	C247.774765,43.308979 246.458023,43.139137 246.038101,43.673740 
	C243.715637,46.630520 241.457306,46.410118 239.736084,43.421295 
	C235.930298,36.812748 234.428543,29.900887 238.065796,22.618441 
	C240.821365,17.101324 241.683029,16.984579 247.563675,21.527178 
	C248.449890,14.811613 245.812576,12.223172 239.387436,13.947238 
	C239.865570,12.856066 240.717789,11.687277 241.793121,10.252468 
	C244.589584,10.871487 247.162933,11.756524 249.942535,12.950239 
	C250.148758,15.207079 250.148758,17.155239 250.148758,18.796776 
	C252.051926,19.044073 253.686905,19.256521 255.542862,19.762333 
z"/>
<path fill="#1D3B3E" opacity="1.000000" stroke="none" 
	d="
M10.959914,23.449842 
	C11.604592,22.772430 12.252652,22.557085 12.900713,22.341740 
	C13.079664,23.322348 13.258616,24.302958 13.283297,26.005680 
	C13.747575,30.147646 14.366124,33.567497 15.045057,37.347145 
	C17.089352,40.797195 19.073261,43.887447 20.738581,47.012459 
	C19.926958,47.407852 19.433926,47.768486 18.940895,48.129120 
	C11.662750,41.578281 10.335189,33.067211 10.959914,23.449842 
z"/>
<path fill="#183732" opacity="1.000000" stroke="none" 
	d="
M19.075420,48.440994 
	C19.433926,47.768486 19.926958,47.407852 21.128344,47.043701 
	C22.875677,46.988441 23.914660,46.936703 25.090965,47.176659 
	C26.423256,48.333294 27.618225,49.198231 28.813194,50.063164 
	C30.422688,51.804832 32.032181,53.546501 33.719238,55.593239 
	C28.934525,53.516495 24.072237,51.134686 19.075420,48.440994 
z"/>
<path fill="#D5DDE1" opacity="1.000000" stroke="none" 
	d="
M18.012478,52.621059 
	C16.404282,51.529301 14.740343,50.098904 13.049289,48.320984 
	C14.667027,49.409782 16.311880,50.846104 18.012478,52.621059 
z"/>
<path fill="#192F3C" opacity="1.000000" stroke="none" 
	d="
M132.832748,24.966898 
	C134.098297,24.960829 135.363846,24.954760 137.105957,24.939344 
	C137.312973,30.972095 137.043442,37.014198 136.732208,43.480556 
	C136.058899,45.005844 135.427277,46.106873 134.448166,47.685722 
	C133.268341,49.064171 132.436005,49.964798 131.603668,50.865433 
	C131.603668,50.865433 131.260437,50.789421 130.843567,50.899326 
	C130.227509,51.319656 130.028320,51.630077 129.829117,51.940502 
	C129.264999,51.997799 128.700882,52.055096 127.986992,52.355095 
	C125.946564,52.190540 124.055901,51.783283 122.059265,50.688866 
	C121.871590,45.329136 121.789886,40.656574 121.708176,35.984013 
	C121.775917,34.931850 121.843658,33.879692 121.939896,32.164429 
	C121.909897,31.320169 121.851395,31.139009 121.792892,30.957850 
	C121.854088,24.954220 121.915291,18.950592 121.995041,12.479910 
	C122.760223,11.969616 123.506859,11.926374 124.616837,11.976931 
	C124.674980,13.675467 123.972778,15.333698 124.179703,16.869434 
	C124.374527,18.315357 125.527794,19.632141 126.561722,21.476208 
	C126.864052,28.403395 126.864052,34.860111 126.864052,41.333523 
	C130.775970,41.897884 132.714935,39.967190 132.958221,36.807621 
	C133.260086,32.887180 132.904404,28.916103 132.832748,24.966898 
z"/>
<path fill="#AFC5C0" opacity="1.000000" stroke="none" 
	d="
M141.874893,42.432922 
	C142.598221,40.873066 143.344513,39.762119 144.090805,38.651176 
	C144.718155,38.731319 145.345505,38.811462 145.972855,38.891605 
	C146.299164,41.967007 146.625488,45.042412 146.956573,48.557419 
	C146.182587,49.669704 145.403809,50.342392 144.319824,51.109310 
	C143.582748,51.120502 143.150909,51.037464 142.392349,50.917465 
	C142.009705,48.214279 141.953781,45.548058 141.874893,42.432922 
z"/>
<path fill="#ECF6F4" opacity="1.000000" stroke="none" 
	d="
M131.992065,50.896599 
	C132.436005,49.964798 133.268341,49.064171 134.358826,47.995110 
	C135.981064,50.186924 135.824234,50.404369 131.992065,50.896599 
z"/>
<path fill="#ECF6F4" opacity="1.000000" stroke="none" 
	d="
M130.073013,51.856850 
	C130.028320,51.630077 130.227509,51.319656 130.710419,51.014050 
	C130.768387,51.270309 130.542648,51.521751 130.073013,51.856850 
z"/>
<path fill="#273E47" opacity="1.000000" stroke="none" 
	d="
M62.845123,43.024818 
	C60.572395,46.089401 57.908333,49.085064 55.045933,52.336197 
	C52.162609,53.502541 49.477623,54.413422 46.386730,55.257706 
	C46.205765,54.634457 46.430706,54.077801 47.201202,53.211288 
	C52.386742,49.549599 57.026733,46.197769 61.666725,42.845940 
	C61.929085,42.882595 62.191441,42.919247 62.845123,43.024818 
z"/>
<path fill="#DBEBF4" opacity="1.000000" stroke="none" 
	d="
M59.758350,5.995434 
	C60.004837,6.443619 60.002457,6.888532 59.999676,7.667140 
	C59.999275,8.000834 59.671127,8.341928 59.246582,8.259669 
	C57.880524,8.090066 56.939011,8.002720 55.849937,7.656765 
	C55.142746,7.241159 54.583118,7.084162 54.015320,6.959832 
	C54.007153,6.992500 54.071850,6.973799 54.056622,6.678533 
	C53.705765,6.231976 53.370140,6.080685 53.032623,5.964786 
	C53.030735,6.000176 53.094376,5.968966 53.196770,5.725970 
	C53.520733,5.012109 53.742298,4.541245 53.963867,4.070380 
	C54.439377,3.731496 54.914886,3.392611 55.695183,3.025553 
	C55.999966,2.997380 56.000000,3.000050 56.132401,3.281016 
	C57.180447,4.371186 58.096085,5.180389 59.011723,5.989594 
	C59.011723,5.989594 59.509487,5.992161 59.758350,5.995434 
z"/>
<path fill="#DCE4E9" opacity="1.000000" stroke="none" 
	d="
M59.000767,5.620236 
	C58.096085,5.180389 57.180447,4.371186 56.131958,3.282515 
	C56.996014,3.752325 57.992912,4.501603 59.000767,5.620236 
z"/>
<path fill="#D0DADF" opacity="1.000000" stroke="none" 
	d="
M97.929497,31.217720 
	C97.953354,36.697876 97.829239,42.185337 98.099030,47.653358 
	C98.171799,49.128269 99.439728,50.544209 100.570435,51.973896 
	C100.524757,52.292011 100.067696,52.623451 99.313614,52.977036 
	C96.120422,56.766090 94.067535,53.708084 91.458878,51.734100 
	C91.043465,51.160156 91.003227,50.963814 90.972122,50.644264 
	C90.981255,50.521057 90.998039,50.274540 91.344193,50.197708 
	C91.921150,49.743767 92.151947,49.366661 92.550354,48.873699 
	C92.904701,48.542931 92.999649,48.293121 93.079460,47.584122 
	C93.248672,45.892303 93.193375,44.592545 93.461380,43.363270 
	C94.286430,39.578972 95.235092,35.821621 96.384674,31.991337 
	C97.065582,31.691824 97.497543,31.454773 97.929497,31.217720 
z"/>
<path fill="#A4ADB3" opacity="1.000000" stroke="none" 
	d="
M106.168350,51.067963 
	C109.853638,50.820160 113.487602,50.942085 117.583176,51.064896 
	C115.639572,51.659519 113.234360,52.253265 110.394455,52.860054 
	C108.678856,52.394634 107.397942,51.916164 106.168350,51.067963 
z"/>
<path fill="#E1E6E5" opacity="1.000000" stroke="none" 
	d="
M94.540726,16.041451 
	C94.927238,17.389154 94.981186,18.774448 94.921455,20.829565 
	C94.570503,22.002779 94.333237,22.506174 93.715973,23.004366 
	C91.721016,21.928640 90.106049,20.858116 88.490105,19.575283 
	C88.489128,19.362972 88.719131,19.006031 88.914581,18.925674 
	C88.937660,18.612955 88.765289,18.380592 88.449387,18.117064 
	C88.305862,18.085897 88.028885,17.988117 88.076508,17.655931 
	C88.127380,16.878448 88.130615,16.433149 88.366638,15.763109 
	C88.725723,14.692950 88.852028,13.847533 88.978340,13.002116 
	C89.148422,13.001450 89.318497,13.000784 89.743675,12.999506 
	C90.425537,15.359927 90.937126,17.605024 94.540726,16.041451 
z"/>
<path fill="#E8EFF0" opacity="1.000000" stroke="none" 
	d="
M121.345322,36.000137 
	C121.789886,40.656574 121.871590,45.329136 121.895935,50.387978 
	C120.953079,50.855484 120.067589,50.936707 118.740585,51.056477 
	C118.347839,48.547352 118.396599,45.999680 118.290062,42.993294 
	C119.084007,40.361805 120.033241,38.189037 121.345322,36.000137 
z"/>
<path fill="#D3DBDF" opacity="1.000000" stroke="none" 
	d="
M90.998039,50.274540 
	C90.998039,50.274540 90.981255,50.521057 90.760117,50.814068 
	C90.345917,51.404610 90.152863,51.702137 89.959808,51.999668 
	C89.076241,52.148224 88.192665,52.296783 87.141144,52.211826 
	C86.873390,48.196709 86.773582,44.415108 86.391937,40.339867 
	C86.134033,39.290508 86.157982,38.534794 86.507050,37.418530 
	C87.169220,37.045723 87.506279,37.033459 87.921471,37.418831 
	C88.999084,41.969154 89.998566,46.121849 90.998039,50.274540 
z"/>
<path fill="#D3DBDF" opacity="1.000000" stroke="none" 
	d="
M82.089455,52.360439 
	C83.207138,51.972721 84.318764,51.871666 85.710739,51.892479 
	C85.228020,52.672264 84.464951,53.330185 83.349937,53.996407 
	C82.693130,53.552170 82.388268,53.099632 82.089455,52.360439 
z"/>
<path fill="#BEC6C8" opacity="1.000000" stroke="none" 
	d="
M90.266022,51.999134 
	C90.152863,51.702137 90.345917,51.404610 90.750977,50.937271 
	C91.003227,50.963814 91.043465,51.160156 91.133179,51.652916 
	C90.979179,51.965759 90.775703,51.982182 90.266022,51.999134 
z"/>
<path fill="#AFB5B7" opacity="1.000000" stroke="none" 
	d="
M255.946732,51.503128 
	C256.367676,51.175625 256.832977,51.157669 257.639648,51.052353 
	C257.994568,51.416306 258.008148,51.867619 258.009644,52.658077 
	C257.328735,52.602375 256.659912,52.207527 255.946732,51.503128 
z"/>
<path fill="#DBE7EE" opacity="1.000000" stroke="none" 
	d="
M61.774727,42.490395 
	C57.026733,46.197769 52.386742,49.549599 47.391212,52.962585 
	C46.756962,52.840130 46.478256,52.656521 46.279114,51.965240 
	C46.941319,50.315388 47.523968,49.173199 48.356544,47.739967 
	C48.588821,45.642895 48.571171,43.836861 48.663185,41.627563 
	C48.908855,39.840256 49.044857,38.456223 49.617287,37.120987 
	C55.155643,37.418037 60.323944,37.832909 63.192062,31.970335 
	C63.376831,31.930969 63.716309,31.765099 64.208054,31.830641 
	C65.028046,31.936708 65.356285,31.977236 65.684517,32.017761 
	C64.417252,35.390125 63.149990,38.762486 61.774727,42.490395 
z"/>
<path fill="#043846" opacity="1.000000" stroke="none" 
	d="
M48.106613,48.031010 
	C47.523968,49.173199 46.941319,50.315388 46.181324,51.732288 
	C38.611637,55.358467 35.331623,54.943897 32.560047,50.057152 
	C31.828617,48.767517 31.707935,47.131485 31.607681,45.328625 
	C35.875427,42.749397 38.996769,39.906643 39.043503,34.648880 
	C39.301723,34.154617 39.557350,33.988163 40.199814,33.960419 
	C41.043083,34.292271 41.568638,34.591541 42.064766,35.249813 
	C41.689407,36.738117 41.343472,37.867420 40.676224,39.174160 
	C40.052612,41.122547 39.004608,44.104832 39.575993,44.456581 
	C42.169964,46.053459 45.220417,46.908825 48.106613,48.031010 
z"/>
<path fill="#337F29" opacity="1.000000" stroke="none" 
	d="
M28.840424,49.671707 
	C27.618225,49.198231 26.423256,48.333294 25.097935,46.817829 
	C24.636007,43.473934 24.304434,40.780563 24.285192,37.915314 
	C26.728800,35.825203 28.860077,33.906975 31.222372,32.073166 
	C31.775589,32.319763 31.953587,32.580418 31.993401,33.327477 
	C30.928633,37.608677 29.857843,41.501942 28.787056,45.395206 
	C28.813923,46.690220 28.840790,47.985237 28.840424,49.671707 
z"/>
<path fill="#DCF7EC" opacity="1.000000" stroke="none" 
	d="
M29.049057,45.214546 
	C29.857843,41.501942 30.928633,37.608677 32.341022,33.317703 
	C33.809261,31.951075 34.935902,30.982155 36.370514,30.182888 
	C37.100826,31.620388 37.523159,32.888233 37.626770,34.202461 
	C35.852482,35.971237 34.396923,37.693626 32.636536,39.641678 
	C32.038467,40.562832 31.745222,41.258320 31.259586,42.142319 
	C31.000353,42.863491 30.933510,43.396152 30.866667,43.928818 
	C30.348131,44.297173 29.829596,44.665531 29.049057,45.214546 
z"/>
<path fill="#0E5D72" opacity="1.000000" stroke="none" 
	d="
M32.941364,39.416016 
	C34.396923,37.693626 35.852482,35.971237 37.706001,34.435341 
	C38.103962,34.621834 38.483990,34.934193 38.483990,34.934193 
	C38.483990,34.934193 38.971779,34.870556 38.971779,34.870556 
	C38.996769,39.906643 35.875427,42.749397 31.553192,45.029152 
	C31.138172,44.869122 31.078522,44.682671 30.942770,44.212521 
	C30.933510,43.396152 31.000353,42.863491 31.621485,41.968903 
	C32.430973,40.876656 32.686169,40.146336 32.941364,39.416016 
z"/>
<path fill="#38734E" opacity="1.000000" stroke="none" 
	d="
M31.966946,3.806733 
	C28.402590,6.253478 24.864084,8.522939 21.155445,10.468010 
	C20.053885,11.045745 18.474127,10.711704 17.157143,10.426575 
	C21.544523,7.668273 25.888247,5.278850 30.613544,2.836388 
	C31.305984,3.024018 31.616848,3.264686 31.966946,3.806733 
z"/>
<path fill="#7BD636" opacity="1.000000" stroke="none" 
	d="
M33.812740,5.910839 
	C38.211311,2.833651 42.376274,3.354520 46.693436,7.179324 
	C47.017258,7.822237 47.003849,8.011054 46.668381,8.286608 
	C43.532711,9.609009 40.719090,10.844673 37.923027,11.703060 
	C36.564632,9.520801 35.188686,7.715820 33.812740,5.910839 
z"/>
<path fill="#B4DCC1" opacity="1.000000" stroke="none" 
	d="
M46.990437,8.199872 
	C47.003849,8.011054 47.017258,7.822237 47.011776,7.350452 
	C46.984959,6.322840 46.977028,5.578196 46.963131,4.462518 
	C47.370106,4.147896 47.783043,4.204306 48.542549,4.183372 
	C48.889118,4.106030 48.943832,4.040460 48.848175,4.383989 
	C49.204746,5.200459 49.656975,5.673400 50.345654,6.380610 
	C50.707081,7.733427 50.832058,8.851975 50.953773,10.402443 
	C50.655945,13.264694 50.361374,15.695024 49.995857,17.786366 
	C49.004478,16.980040 48.084053,16.512703 47.084923,15.767622 
	C46.968540,15.301305 46.930866,15.112733 47.073601,14.603218 
	C47.166153,12.254807 47.078297,10.227339 46.990437,8.199872 
z"/>
<path fill="#5BCE2A" opacity="1.000000" stroke="none" 
	d="
M33.567364,6.018407 
	C35.188686,7.715820 36.564632,9.520801 37.642887,11.919961 
	C32.699932,15.264814 32.066025,14.742444 31.988008,8.099552 
	C31.982121,7.930937 31.976231,7.762321 32.015018,7.344626 
	C32.480461,6.772356 32.901222,6.449166 33.567364,6.018407 
z"/>
<path fill="#46D9D3" opacity="1.000000" stroke="none" 
	d="
M50.957039,9.970524 
	C50.832058,8.851975 50.707081,7.733427 50.309528,6.057368 
	C49.672581,5.013392 49.308205,4.526927 48.943832,4.040460 
	C48.943832,4.040460 48.889118,4.106030 48.847153,4.110338 
	C49.048923,3.802631 49.292656,3.490615 49.782986,3.014131 
	C50.838184,3.084673 51.646782,3.319683 52.410423,3.824206 
	C52.608437,4.718802 52.851406,5.343884 53.094376,5.968966 
	C53.094376,5.968966 53.030735,6.000176 53.102310,6.224548 
	C53.473206,6.623880 53.772530,6.798840 54.071850,6.973799 
	C54.071850,6.973799 54.007153,6.992500 54.102539,7.224533 
	C54.769543,7.890481 55.341156,8.324397 55.951279,8.813263 
	C55.989788,8.868212 55.951405,8.996806 55.914574,9.230381 
	C55.877743,9.463955 55.887672,9.936771 55.655766,10.085876 
	C55.604065,10.841403 55.784271,11.447824 55.979969,12.027308 
	C55.995461,12.000371 55.933434,12.004292 55.878902,12.436819 
	C55.713261,14.590238 55.602150,16.311127 55.149143,17.937614 
	C54.213108,16.452791 53.671192,15.036917 53.009621,13.679358 
	C52.391460,12.410897 51.646301,11.204330 50.957039,9.970524 
z"/>
<path fill="#25B7AC" opacity="1.000000" stroke="none" 
	d="
M53.196770,5.725970 
	C52.851406,5.343884 52.608437,4.718802 52.622261,4.060730 
	C53.059490,4.044804 53.239925,4.061868 53.692116,4.074656 
	C53.742298,4.541245 53.520733,5.012109 53.196770,5.725970 
z"/>
<path fill="#F2F7F8" opacity="1.000000" stroke="none" 
	d="
M173.483856,45.621452 
	C168.355698,39.788486 167.182709,25.502981 171.450150,20.044739 
	C172.247879,19.024399 175.323563,18.537661 176.459290,19.240578 
	C181.958603,22.644165 181.257385,42.318268 175.698929,45.694302 
	C175.221924,45.984016 174.450348,45.788757 173.483856,45.621452 
z"/>
<path fill="#F5F8F9" opacity="1.000000" stroke="none" 
	d="
M203.455215,47.659119 
	C202.477615,47.997467 201.633728,47.998901 200.368164,48.000481 
	C199.878525,46.605301 199.810562,45.209969 199.852646,43.407463 
	C200.854843,43.000107 201.746994,42.999928 202.973389,42.996124 
	C203.401398,44.435730 203.495163,45.878963 203.455215,47.659119 
z"/>
<path fill="#D7E7F1" opacity="1.000000" stroke="none" 
	d="
M206.554962,30.916307 
	C206.071518,29.822701 206.021683,28.295267 206.208389,26.392271 
	C206.444931,26.016710 206.899384,26.169611 206.899384,26.169613 
	C207.044769,27.100552 207.190155,28.031492 207.482483,29.199429 
	C207.415802,29.785107 207.202179,30.133793 206.554962,30.916307 
z"/>
<path fill="#314455" opacity="1.000000" stroke="none" 
	d="
M206.937622,25.874016 
	C206.899384,26.169611 206.444931,26.016710 206.205414,26.006035 
	C205.900208,25.494186 205.834534,24.993013 205.768860,24.491844 
	C206.171188,24.854038 206.573517,25.216230 206.937622,25.874016 
z"/>
<path fill="#B8CAD8" opacity="1.000000" stroke="none" 
	d="
M189.969849,28.678072 
	C189.515701,29.269430 189.073914,29.513454 188.416260,29.897995 
	C188.107590,28.617804 188.014832,27.197092 187.922073,25.776382 
	C188.139679,25.706926 188.357269,25.637472 188.574875,25.568016 
	C189.043991,26.488922 189.513123,27.409828 189.969849,28.678072 
z"/>
<path fill="#B8CAD8" opacity="1.000000" stroke="none" 
	d="
M188.179626,38.380508 
	C188.427765,39.477005 188.571075,40.986099 188.501434,42.757851 
	C188.217255,41.611370 188.146027,40.202236 188.179626,38.380508 
z"/>
<path fill="#B8CAD8" opacity="1.000000" stroke="none" 
	d="
M188.142502,32.229683 
	C188.330704,32.250271 188.433990,32.541622 188.389481,32.935135 
	C188.180313,32.858345 188.118942,32.679398 188.142502,32.229683 
z"/>
<path fill="#E0E7EA" opacity="1.000000" stroke="none" 
	d="
M223.155060,28.303310 
	C224.311737,28.118689 225.430664,28.254034 226.767380,28.648420 
	C225.695877,28.812735 224.406586,28.718008 223.155060,28.303310 
z"/>
<path fill="#41B830" opacity="1.000000" stroke="none" 
	d="
M31.682247,8.363386 
	C32.066025,14.742444 32.699932,15.264814 37.625336,12.297239 
	C40.719090,10.844673 43.532711,9.609009 46.668381,8.286608 
	C47.078297,10.227339 47.166153,12.254807 46.739311,14.652958 
	C45.461956,15.377725 44.699295,15.731805 43.621849,16.184135 
	C41.213570,18.540279 39.120071,20.798172 37.029480,23.025124 
	C37.032383,22.994183 37.090439,23.016813 36.750099,22.946705 
	C35.949707,22.926161 35.489658,22.975725 34.590519,23.012760 
	C32.102547,23.007349 30.053661,23.014465 27.777592,22.857981 
	C27.691071,21.835560 27.831730,20.976740 27.972389,20.117922 
	C28.852371,18.562458 30.070366,17.099638 30.528376,15.428522 
	C31.126068,13.247753 31.121767,10.901991 31.682247,8.363386 
z"/>
<path fill="#289424" opacity="1.000000" stroke="none" 
	d="
M28.004776,23.021584 
	C30.053661,23.014465 32.102547,23.007349 34.437233,23.311705 
	C33.107311,26.050838 31.491589,28.478498 29.575306,30.777721 
	C24.741098,30.450214 20.207453,30.251146 15.500772,29.777519 
	C15.182996,28.649591 15.038252,27.796225 14.893508,26.942856 
	C15.500338,25.807987 16.107166,24.673120 17.209476,23.533581 
	C20.994551,26.214069 25.112703,26.011227 28.004776,23.021584 
z"/>
<path fill="#47AF2E" opacity="1.000000" stroke="none" 
	d="
M27.777592,22.857981 
	C25.112703,26.011227 20.994551,26.214069 17.452656,23.321156 
	C19.608543,19.230516 23.498478,20.011486 27.548248,20.039227 
	C27.831730,20.976740 27.691071,21.835560 27.777592,22.857981 
z"/>
<path fill="#93B2AD" opacity="1.000000" stroke="none" 
	d="
M14.683846,26.855885 
	C15.038252,27.796225 15.182996,28.649591 15.550063,30.137079 
	C17.219656,32.803226 18.666925,34.835258 19.688103,36.904873 
	C17.836231,36.957420 16.410452,36.972385 14.984674,36.987350 
	C14.366124,33.567497 13.747575,30.147646 13.273624,26.322277 
	C13.770209,26.200813 14.122196,26.484863 14.683846,26.855885 
z"/>
<path fill="#081826" opacity="1.000000" stroke="none" 
	d="
M91.344193,50.197708 
	C89.998566,46.121849 88.999084,41.969154 87.968018,37.064270 
	C87.654594,35.210312 87.372757,34.108547 87.090927,33.006779 
	C88.036499,32.529720 88.982079,32.052662 90.334930,31.281767 
	C91.713692,29.603399 92.685165,28.218870 93.972702,27.051807 
	C94.904419,28.864117 95.520065,30.458958 96.135719,32.053799 
	C95.235092,35.821621 94.286430,39.578972 93.461380,43.363270 
	C93.193375,44.592545 93.248672,45.892303 92.811676,47.627487 
	C92.439087,48.393288 92.410912,48.691422 92.382744,48.989555 
	C92.151947,49.366661 91.921150,49.743767 91.344193,50.197708 
z"/>
<path fill="#132C40" opacity="1.000000" stroke="none" 
	d="
M88.133850,15.987851 
	C88.130615,16.433149 88.127380,16.878448 87.851555,17.798573 
	C87.705421,18.843729 87.831879,19.414055 88.000000,20.305794 
	C88.098618,21.055294 88.155579,21.483385 88.212540,21.911474 
	C86.725616,23.266493 85.238701,24.621513 83.393456,25.982811 
	C83.027344,23.324202 82.629517,20.575607 83.175911,18.029655 
	C83.450111,16.752056 85.442955,15.843304 87.180740,14.979982 
	C87.777916,15.494617 87.921547,15.759827 88.133850,15.987851 
z"/>
<path fill="#D4DDE3" opacity="1.000000" stroke="none" 
	d="
M88.575996,22.095032 
	C88.155579,21.483385 88.098618,21.055294 88.127670,20.241652 
	C88.213676,19.856098 88.491081,19.787592 88.491081,19.787594 
	C90.106049,20.858116 91.721016,21.928640 93.747490,23.389923 
	C93.991539,24.798571 93.824089,25.816456 93.656631,26.834343 
	C92.685165,28.218870 91.713692,29.603399 90.391441,30.935879 
	C89.673592,28.015415 89.306519,25.147001 88.575996,22.095032 
z"/>
<path fill="#BEC6C8" opacity="1.000000" stroke="none" 
	d="
M86.993744,32.707207 
	C87.372757,34.108547 87.654594,35.210312 87.889877,36.666634 
	C87.506279,37.033459 87.169220,37.045723 86.579346,37.047455 
	C86.373291,35.252357 86.420059,33.467781 86.466827,31.683207 
	C86.576057,31.771538 86.720596,31.839796 86.785225,31.953482 
	C86.859329,32.083839 86.862556,32.254490 86.993744,32.707207 
z"/>
<path fill="#D4DDE3" opacity="1.000000" stroke="none" 
	d="
M88.366638,15.763109 
	C87.921547,15.759827 87.777916,15.494617 87.526985,15.047255 
	C87.318825,14.464815 87.286621,14.027342 87.205338,13.262061 
	C87.561226,12.953382 87.966194,12.972513 88.674751,12.996880 
	C88.852028,13.847533 88.725723,14.692950 88.366638,15.763109 
z"/>
<path fill="#AECED5" opacity="1.000000" stroke="none" 
	d="
M55.887672,9.936771 
	C55.887672,9.936771 55.877743,9.463955 56.206085,9.401449 
	C58.941299,12.046971 61.348167,14.754999 63.755035,17.463028 
	C64.486397,22.072929 65.217758,26.682829 65.816818,31.655247 
	C65.356285,31.977236 65.028046,31.936708 64.254776,31.432148 
	C63.858200,28.833683 63.906651,26.699255 63.948631,24.175983 
	C61.272583,19.859524 58.603008,15.931907 55.933434,12.004292 
	C55.933434,12.004292 55.995461,12.000371 55.988403,11.674362 
	C55.950119,10.877826 55.918896,10.407298 55.887672,9.936771 
z"/>
<path fill="#2B6163" opacity="1.000000" stroke="none" 
	d="
M63.899452,17.166405 
	C61.348167,14.754999 58.941299,12.046971 56.242916,9.167875 
	C55.951405,8.996806 55.989788,8.868212 55.993431,8.605621 
	C55.997070,8.343030 55.997498,7.915374 55.997498,7.915375 
	C56.939011,8.002720 57.880524,8.090066 59.082512,8.430223 
	C61.189854,10.898203 63.036713,13.113368 64.945168,15.663055 
	C64.685799,16.288311 64.364830,16.579046 63.899452,17.166405 
z"/>
<path fill="#294253" opacity="1.000000" stroke="none" 
	d="
M110.999680,21.843327 
	C111.646851,18.798317 112.770844,15.756597 113.945541,12.367695 
	C115.234528,12.020512 116.472801,12.020512 117.842957,12.020512 
	C117.842957,15.224199 117.842957,18.256977 117.842957,21.846615 
	C115.585892,21.846615 113.531189,21.846615 110.999680,21.843327 
z"/>
<path fill="#091E2F" opacity="1.000000" stroke="none" 
	d="
M111.201683,36.242432 
	C110.789238,33.554585 110.724045,30.667051 110.803696,27.453335 
	C112.731125,27.127148 114.513718,27.127148 116.651855,27.127148 
	C116.651855,30.158934 116.651855,32.837337 116.651855,36.042744 
	C115.013321,36.042744 113.281128,36.042744 111.201683,36.242432 
z"/>
<path fill="#CCD8DD" opacity="1.000000" stroke="none" 
	d="
M121.554077,30.971264 
	C121.851395,31.139009 121.909897,31.320169 121.877579,31.772079 
	C121.387276,31.862333 120.987793,31.681833 120.588318,31.501331 
	C120.830635,31.329113 121.072945,31.156895 121.554077,30.971264 
z"/>
<path fill="#0C2434" opacity="1.000000" stroke="none" 
	d="
M93.972702,27.051807 
	C93.824089,25.816456 93.991539,24.798571 94.127487,23.395126 
	C94.333237,22.506174 94.570503,22.002779 94.942245,21.252495 
	C96.021828,24.164112 96.966942,27.322617 97.920776,30.849422 
	C97.497543,31.454773 97.065582,31.691824 96.384674,31.991337 
	C95.520065,30.458958 94.904419,28.864117 93.972702,27.051807 
z"/>
<path fill="#ECF1F2" opacity="1.000000" stroke="none" 
	d="
M132.806976,24.872658 
	C132.904404,28.916103 133.260086,32.887180 132.958221,36.807621 
	C132.714935,39.967190 130.775970,41.897884 126.864052,41.333523 
	C126.864052,34.860111 126.864052,28.403395 126.958488,21.488503 
	C128.477066,21.584383 129.901199,22.138437 131.685577,23.191462 
	C132.340714,24.011091 132.635635,24.331753 132.930542,24.652412 
	C132.930542,24.652412 132.781189,24.778416 132.806976,24.872658 
z"/>
<path fill="#192F3C" opacity="1.000000" stroke="none" 
	d="
M132.848175,24.328779 
	C132.635635,24.331753 132.340714,24.011091 131.976440,23.356899 
	C132.193329,23.350628 132.479568,23.677887 132.848175,24.328779 
z"/>
<path fill="#C6D6DB" opacity="1.000000" stroke="none" 
	d="
M15.045057,37.347145 
	C16.410452,36.972385 17.836231,36.957420 19.671352,36.914421 
	C20.080698,36.886387 20.106297,36.887794 20.125259,37.176685 
	C20.477892,37.611717 20.811562,37.757854 21.499454,37.902496 
	C22.560074,37.963062 23.266468,38.025131 23.972862,38.087196 
	C24.304434,40.780563 24.636007,43.473934 24.960609,46.526131 
	C23.914660,46.936703 22.875677,46.988441 21.446934,47.008942 
	C19.073261,43.887447 17.089352,40.797195 15.045057,37.347145 
z"/>
<path fill="#25B7AC" opacity="1.000000" stroke="none" 
	d="
M55.849937,7.656765 
	C55.997498,7.915374 55.997070,8.343030 55.954918,8.550672 
	C55.341156,8.324397 54.769543,7.890481 54.110706,7.191865 
	C54.583118,7.084162 55.142746,7.241159 55.849937,7.656765 
z"/>
<path fill="#25B7AC" opacity="1.000000" stroke="none" 
	d="
M54.056622,6.678533 
	C53.772530,6.798840 53.473206,6.623880 53.104198,6.189158 
	C53.370140,6.080685 53.705765,6.231976 54.056622,6.678533 
z"/>
<path fill="#BEC6C8" opacity="1.000000" stroke="none" 
	d="
M92.550354,48.873699 
	C92.410912,48.691422 92.439087,48.393288 92.735039,48.051788 
	C92.999649,48.293121 92.904701,48.542931 92.550354,48.873699 
z"/>
<path fill="#0C2131" opacity="1.000000" stroke="none" 
	d="
M88.490105,19.575283 
	C88.491081,19.787592 88.213676,19.856098 88.086006,19.920238 
	C87.831879,19.414055 87.705421,18.843729 87.803925,18.130760 
	C88.028885,17.988117 88.305862,18.085897 88.395264,18.344139 
	C88.484673,18.602379 88.719131,19.006031 88.719131,19.006031 
	C88.719131,19.006031 88.489128,19.362972 88.490105,19.575283 
z"/>
<path fill="#D4DDE3" opacity="1.000000" stroke="none" 
	d="
M88.914581,18.925674 
	C88.719131,19.006031 88.484673,18.602379 88.538795,18.375305 
	C88.765289,18.380592 88.937660,18.612955 88.914581,18.925674 
z"/>
<path fill="#19A1A8" opacity="1.000000" stroke="none" 
	d="
M63.955109,24.564825 
	C63.906651,26.699255 63.858200,28.833683 63.763027,31.366606 
	C63.716309,31.765099 63.376831,31.930969 62.758438,31.966028 
	C57.529949,32.352959 53.378426,31.679850 51.006824,26.682100 
	C51.002411,25.890438 51.001057,25.438171 51.334373,24.932835 
	C53.115166,23.246298 54.561287,21.612829 56.376350,19.979063 
	C59.148567,21.507452 61.551838,23.036139 63.955109,24.564825 
z"/>
<path fill="#177784" opacity="1.000000" stroke="none" 
	d="
M51.009884,27.021492 
	C53.378426,31.679850 57.529949,32.352959 62.573669,32.005394 
	C60.323944,37.832909 55.155643,37.418037 49.344467,36.982353 
	C46.741261,36.173161 44.847313,35.551395 43.155228,34.670944 
	C45.252136,32.596024 47.147175,30.779797 49.305180,28.856384 
	C50.048725,28.173296 50.529305,27.597395 51.009884,27.021492 
z"/>
<path fill="#024D5D" opacity="1.000000" stroke="none" 
	d="
M48.356544,47.739967 
	C45.220417,46.908825 42.169964,46.053459 39.575993,44.456581 
	C39.004608,44.104832 40.052612,41.122547 40.742516,39.528633 
	C43.604591,40.480721 46.079052,41.255775 48.553520,42.030830 
	C48.571171,43.836861 48.588821,45.642895 48.356544,47.739967 
z"/>
<path fill="#065B68" opacity="1.000000" stroke="none" 
	d="
M48.663185,41.627563 
	C46.079052,41.255775 43.604591,40.480721 41.063835,39.351196 
	C41.343472,37.867420 41.689407,36.738117 42.278412,35.280304 
	C42.521484,34.951797 42.953362,34.929634 42.953362,34.929634 
	C44.847313,35.551395 46.741261,36.173161 48.908035,36.933556 
	C49.044857,38.456223 48.908855,39.840256 48.663185,41.627563 
z"/>
<path fill="#C7F3DC" opacity="1.000000" stroke="none" 
	d="
M47.163624,16.045366 
	C48.084053,16.512703 49.004478,16.980040 49.987686,18.086592 
	C49.995132,19.124079 49.939804,19.522348 49.618286,20.099829 
	C48.540268,21.742104 47.728439,23.205168 46.620232,24.846539 
	C44.176601,27.992510 42.029354,30.960176 39.882107,33.927841 
	C39.557350,33.988163 39.301723,34.154617 39.043503,34.648880 
	C38.971779,34.870556 38.483990,34.934193 38.483990,34.934193 
	C38.483990,34.934193 38.103962,34.621834 38.024727,34.388954 
	C37.523159,32.888233 37.100826,31.620388 36.262474,29.912922 
	C36.287739,28.359238 36.729019,27.245173 37.548111,26.120762 
	C42.774670,25.293802 45.946110,21.838320 47.163624,16.045366 
z"/>
<path fill="#0D91A6" opacity="1.000000" stroke="none" 
	d="
M40.199814,33.960419 
	C42.029354,30.960176 44.176601,27.992510 46.672325,25.202915 
	C47.694607,26.575180 48.368408,27.769373 49.042213,28.963570 
	C47.147175,30.779797 45.252136,32.596024 43.155228,34.670944 
	C42.953362,34.929634 42.521484,34.951797 42.307838,34.921307 
	C41.568638,34.591541 41.043083,34.292271 40.199814,33.960419 
z"/>
<path fill="#146423" opacity="1.000000" stroke="none" 
	d="
M24.285192,37.915314 
	C23.266468,38.025131 22.560074,37.963062 21.347452,37.706955 
	C20.690502,37.193718 20.445526,36.985344 20.106297,36.887794 
	C20.106297,36.887794 20.080698,36.886387 20.097446,36.876839 
	C18.666925,34.835258 17.219656,32.803226 15.723096,30.411640 
	C20.207453,30.251146 24.741098,30.450214 29.812458,30.904015 
	C30.563898,31.435415 30.777626,31.712082 30.991356,31.988750 
	C28.860077,33.906975 26.728800,35.825203 24.285192,37.915314 
z"/>
<path fill="#146F03" opacity="1.000000" stroke="none" 
	d="
M31.222370,32.073162 
	C30.777626,31.712082 30.563898,31.435415 30.113018,31.032452 
	C31.491589,28.478498 33.107311,26.050838 34.876320,23.324234 
	C35.489658,22.975725 35.949707,22.926161 36.732277,23.336712 
	C37.093296,24.574923 37.131802,25.353014 37.170303,26.131107 
	C36.729019,27.245173 36.287739,28.359238 35.954498,29.743269 
	C34.935902,30.982155 33.809261,31.951075 32.334999,32.929768 
	C31.953587,32.580418 31.775589,32.319763 31.222370,32.073162 
z"/>
<path fill="#043846" opacity="1.000000" stroke="none" 
	d="
M32.636536,39.641678 
	C32.686169,40.146336 32.430973,40.876656 31.813875,41.780396 
	C31.745222,41.258320 32.038467,40.562832 32.636536,39.641678 
z"/>
<path fill="#95EE3D" opacity="1.000000" stroke="none" 
	d="
M37.548115,26.120762 
	C37.131802,25.353014 37.093296,24.574923 37.072617,23.406822 
	C37.090439,23.016813 37.032383,22.994183 37.371464,22.982162 
	C39.785912,20.675392 41.861275,18.380638 43.936638,16.085884 
	C44.699295,15.731805 45.461956,15.377725 46.558903,14.973903 
	C46.930866,15.112733 46.968540,15.301305 47.084923,15.767622 
	C45.946110,21.838320 42.774670,25.293802 37.548115,26.120762 
z"/>
<path fill="#2ABCC3" opacity="1.000000" stroke="none" 
	d="
M49.884480,19.920618 
	C49.939804,19.522348 49.995132,19.124079 50.058632,18.425583 
	C50.361374,15.695024 50.655945,13.264694 50.953777,10.402443 
	C51.646301,11.204330 52.391460,12.410897 53.009621,13.679358 
	C53.671192,15.036917 54.213108,16.452791 55.254757,18.258022 
	C55.803982,19.108341 55.905693,19.543852 56.007408,19.979361 
	C54.561287,21.612829 53.115166,23.246298 51.212078,24.638733 
	C50.464901,22.905338 50.174690,21.412977 49.884480,19.920618 
z"/>
<path fill="#38B9B3" opacity="1.000000" stroke="none" 
	d="
M48.848175,4.383989 
	C49.308205,4.526927 49.672581,5.013392 50.073082,5.823100 
	C49.656975,5.673400 49.204746,5.200459 48.848175,4.383989 
z"/>
<path fill="#C3F3F7" opacity="1.000000" stroke="none" 
	d="
M56.376350,19.979063 
	C55.905693,19.543852 55.803982,19.108341 55.596653,18.352425 
	C55.602150,16.311127 55.713261,14.590238 55.878906,12.436819 
	C58.603008,15.931907 61.272583,19.859524 63.948631,24.175983 
	C61.551838,23.036139 59.148567,21.507452 56.376350,19.979063 
z"/>
<path fill="#C3F3F7" opacity="1.000000" stroke="none" 
	d="
M55.655766,10.085876 
	C55.918896,10.407298 55.950119,10.877826 55.972908,11.701300 
	C55.784271,11.447824 55.604065,10.841403 55.655766,10.085876 
z"/>
<path fill="#146F03" opacity="1.000000" stroke="none" 
	d="
M43.621849,16.184135 
	C41.861275,18.380638 39.785912,20.675392 37.368561,23.013105 
	C39.120071,20.798172 41.213570,18.540279 43.621849,16.184135 
z"/>
<path fill="#93B2AD" opacity="1.000000" stroke="none" 
	d="
M20.125259,37.176685 
	C20.445526,36.985344 20.690502,37.193718 20.993229,37.708458 
	C20.811562,37.757854 20.477892,37.611717 20.125259,37.176685 
z"/>
<path fill="#21ACB6" opacity="1.000000" stroke="none" 
	d="
M49.618286,20.099829 
	C50.174690,21.412977 50.464901,22.905338 50.877403,24.691799 
	C51.001057,25.438171 51.002411,25.890438 51.006824,26.682098 
	C50.529305,27.597395 50.048725,28.173296 49.305180,28.856382 
	C48.368408,27.769373 47.694607,26.575180 46.968704,25.024609 
	C47.728439,23.205168 48.540268,21.742104 49.618286,20.099829 
z"/>
</svg>